/* XPM */
static char *_cd9fdda5682424a9ec6edc43aed1784Z89aTdgoqro8rLTo[] = {
/* columns rows colors chars-per-pixel */
"64 64 219 2 ",
"   c #0E0D0D",
".  c #110E0E",
"X  c #141414",
"o  c #1A1616",
"O  c #181817",
"+  c #1C1B1B",
"@  c #310E0E",
"#  c #241415",
"$  c #281B1B",
"%  c #371B1B",
"&  c #31201F",
"*  c #201F21",
"=  c #242424",
"-  c #2B2222",
";  c #2C2C2C",
":  c #392525",
">  c #3A2A2A",
",  c #323232",
"<  c #3C3231",
"1  c #3C3C3C",
"2  c #411616",
"3  c #4A1819",
"4  c #681C1D",
"5  c #7C1F1F",
"6  c #4D2525",
"7  c #4C2827",
"8  c #442B2B",
"9  c #4C2B2B",
"0  c #572728",
"q  c #5B292A",
"w  c #512E30",
"e  c #443132",
"r  c #493838",
"t  c #543435",
"y  c #5E3332",
"u  c #593C3C",
"i  c #642526",
"p  c #6C2224",
"a  c #6D2B2C",
"s  c #782627",
"d  c #732A2B",
"f  c #782F31",
"g  c #663637",
"h  c #753738",
"j  c #7A3A3B",
"k  c #6E403F",
"l  c #753E40",
"z  c #434343",
"x  c #4B4B4B",
"c  c #5D4243",
"v  c #5C4849",
"b  c #545353",
"n  c #595758",
"m  c #5B5B5D",
"M  c #6D4343",
"N  c #6E4D4E",
"B  c #744445",
"V  c #7C4344",
"C  c #76484B",
"Z  c #7E494B",
"A  c #7C4F52",
"S  c #7A595B",
"D  c #5D5E62",
"F  c #6F5E63",
"G  c #785F62",
"H  c #5F6164",
"J  c #636365",
"K  c #6B6265",
"L  c #65666A",
"P  c #68676B",
"I  c #66696B",
"U  c #6A6A6D",
"Y  c #696D6E",
"T  c #6A6C6F",
"R  c #6C6C6C",
"E  c #6E6E6F",
"W  c #77676A",
"Q  c #6C6B70",
"!  c #6B6C70",
"~  c #6B6E70",
"^  c #6D6E72",
"/  c #6E6F73",
"(  c #706F73",
")  c #786C70",
"_  c #6E7173",
"`  c #6F7074",
"'  c #6F7374",
"]  c #717172",
"[  c #707175",
"{  c #727275",
"}  c #727377",
"|  c #717576",
" . c #757576",
".. c #737578",
"X. c #747579",
"o. c #75767A",
"O. c #78777C",
"+. c #76797B",
"@. c #79797D",
"#. c #797A7D",
"$. c #9C181B",
"%. c #A2161A",
"&. c #AB1418",
"*. c #A51B1D",
"=. c #AA1B1D",
"-. c #B41317",
";. c #B51519",
":. c #B61519",
">. c #BB161A",
",. c #BD1A1D",
"<. c #8C1F21",
"1. c #921F20",
"2. c #991D21",
"3. c #A71D20",
"4. c #AD1E20",
"5. c #B61E22",
"6. c #832628",
"7. c #8A2628",
"8. c #832A2C",
"9. c #932224",
"0. c #9D2325",
"q. c #962728",
"w. c #9C2729",
"e. c #922A2D",
"r. c #882E31",
"t. c #9F2E32",
"y. c #833234",
"u. c #8C3234",
"i. c #863538",
"p. c #8D3B3C",
"a. c #913335",
"s. c #9C3234",
"d. c #9A3739",
"f. c #933A3B",
"g. c #9A3C3D",
"h. c #A42626",
"j. c #A32629",
"k. c #AB272A",
"l. c #A1292B",
"z. c #B22425",
"x. c #BE2326",
"c. c #B42628",
"v. c #B52B2C",
"b. c #BC2B2E",
"n. c #A62F31",
"m. c #B42F31",
"M. c #BD2E30",
"N. c #A93335",
"B. c #A73638",
"V. c #A23B3D",
"C. c #AA393B",
"Z. c #BD3132",
"A. c #B8383A",
"S. c #C11A1D",
"D. c #C31E22",
"F. c #C62528",
"G. c #C22C2E",
"H. c #CA2F2F",
"J. c #C22F30",
"K. c #C43133",
"L. c #C93436",
"P. c #CC3639",
"I. c #C43A3B",
"U. c #CC3A3C",
"Y. c #D2383B",
"T. c #853F42",
"R. c #8A3E42",
"E. c #953E41",
"W. c #9A3F42",
"Q. c #A53F40",
"!. c #CD3D40",
"~. c #854245",
"^. c #83454A",
"/. c #8C4548",
"(. c #83494D",
"). c #954648",
"_. c #9A4B4C",
"`. c #844E51",
"'. c #894D51",
"]. c #9B4E51",
"[. c #885558",
"{. c #9A5557",
"}. c #A54749",
"|. c #AC4B4D",
" X c #BC4345",
".X c #B74849",
"XX c #AB5556",
"oX c #B85859",
"OX c #8A5C60",
"+X c #876164",
"@X c #9A6164",
"#X c #C74749",
"$X c #D24245",
"%X c #D54749",
"&X c #D54B4D",
"*X c #DB4A4D",
"=X c #C64F51",
"-X c #D44F51",
";X c #C65657",
":X c #CB5354",
">X c #D65254",
",X c #DA5355",
"<X c #D45A5B",
"1X c #DB5A5C",
"2X c #E44B4C",
"3X c #E45A5B",
"4X c #E15F61",
"5X c #DB6264",
"6X c #E56567",
"7X c #E86768",
"8X c #EB6F70",
"9X c #EF6F71",
"0X c #F37A7B",
"qX c #F8797A",
"wX c #7D7E81",
"eX c #808185",
"rX c #F78687",
"tX c #FB8D8D",
"yX c #FC9595",
/* pixels */
"U } I I ..^ ..H ! I ! Y ! ` _ I  .+.H Y } L O.O.Q P Q D ^ J ! ` ! ! ` +.! } _ ! Y P ^ ! ^ ^ P } P P } } Q P L X.P L ^ Y L } Y P ",
"P ^ Y U H I ^ I Y wXI H ! _ wX! wX_ +._ U ^ R X.( ^ ( L L L Y } } I L ` .._ ` | ^ ....Q ^ } } P } ( } Q P P ( Q L L ! P ! D Y } ",
"X.H I I Y ! ` ..I ` H ! ! ! H L  . .L ] E P @.Q Q L ( ( ! ^ / ! L ! +.X.+.+._ ! | P | H ^ ^ Y / O.^ L ^ ( } } L L ! J Y L ^ ^ L ",
"J Y L Y I I H H L H ` ! ' L ` ! I L ] R P P P E ^ E P Q } L ! } ^ } +.+..._ H _ Y H _ I ^ } } P P ( L Q X.P Q / H H U / ! L L Y ",
"P Y I ! L H H ! H I _ Y ! I I ..R R ] R R R ] I Q } U +.^ P Q ! | ..' ` ^ _ _ ^ Y L Q ! ( ( ( } ( J } ( L ( P P I H ! H I H I +.",
"Y ^ H U ^ H H Y U ! ! Y L ` Y L  .R R  .J ] J J ! ^ ^ J P P wXQ ^ ..I L } ! _ ^ ..` L ! J U #.P J P L P D P Q L ! ..D D H ! I ! ",
"L J ! J L ` D ! ^ H Y L J J I L R E R R R E E  .J Y ^ L L L P Q ^ ! Y } _ wX| ^ ^ Y Y L P ^ P P D P ( J D ( X.L ! D I H I ! ! ..",
"L L L H L ! ! ! L P H m J m I E R ]  .m J J J R L ` U ^ R J Q } Y ^ I } | | ! ! } P Y P +.E ^ P Q ( P ( ( P ( P Y _ ` ^ H | I I ",
"} Q P P P L L Q J H L L L } J L R  . .R L R K J L R } U ^ U ( Q ! ^ _ ! ! ! ..` I ! ! ! ^ P ^ ^ J J R H I L J L I ! I D I I ! I ",
"L } ..^ P Q O.( D L X.L J P H Y ] R R J  .K R m L ] R  .L ( ( Q P ` ` ! | ! ` ` ! I ! ` m E E L  .m J R L K L J H H L I I ! wXI ",
"P Q Q Q ^ P ( L P P P P L P P P E m R J R H R H J J R ( Q } P Q .._ | L I Y U Y ` ! ..I E _ #.J R R L K E J / L H H ` ' ! H H ! ",
"J Q Q } L J D Q L J P } J ( P P E H L  .R R R H ] K  .E ( ( ( P } L wX} I ! I Y I H wXH E  .] J  . .R L Y J D ! D I Y ! ! ' H ` ",
"( ( ( Q } P D Q J P ( P m D J J  .R L J L R R  .R ] I E Y ^ U L Y ..! ! ` I I } ` ! ` H ! I P  .E K R m H L K J D D R ^ ` H I ! ",
"( ^ L P Q J wXK U J P R Q Q Q ( H H K R J L R E J ] ]  .( L L ( ` ` ` I ` ! } I I ` I L H wXL } E ] I m E L P ^ H D ( L I ' ..` ",
"P } P E J P P ( J D L X.( ( Q ( R R R K J E E L | ! E E Y +.^ L I ..` wXwX} I ^ ! ....| H ! ^ L R R ] P ! D L L L Q L ^ Y I ..` ",
"P R wX( ( J J Q J ( E X.R ( P E R ] R L R ] ] _ _ I Y I L Y X.P ..wXwXH H | H Y ! I ` ! ..U Y Y E E E L L L ! L } L I | ! L ! ' ",
"( Q ( U ..Q L P ! Q L L ( P R P ] E R E K R I P ! _ ^ P ! Y X.^ ^ Y } ^ ( L Y L P Y U I L L I ] K R J  .] R E R U ^ L } ( +.wX..",
"Q ( L ..( O.P Q U ^ O.^ P P E P R L J O.I ] H L L Y Y J Y Y L } ^ Y L ^ ] L L ^ L _ J _ L I K R  .J H I J m R } ( R ^ ( X.^ ^ wX",
"Q } U X.^ ^ ^ ^ Y L E | L X.E ^ J E L U J R R ] Y _ ] Y ^ ( Q ( Y L ! Y ! ^ U G K P ^ ] E R L E R R L L R H R  .O.P Q ( ( P X.H ",
"/ / / ^ ! L ^ X._ J E Y ( L J ^ J L E ^ L J U +.Y _ L Y ^ H U ( J X.^ eX^ X. .@Xf.^ X.U U R E ] R R R K ] J P E L R Q Q ..( ( P ",
"^ ! I U ^ ( P F A ~.i.e.q.w.l.h.w.t.s.e.r.j V `.A (.Z Z [./.{.).Z `.Z Z V '.`.i.4.^.^.T.7.0.k.I.#X&X#XU.c.3.e.V G L J J P E U } ",
"U ` _ U ^ P u.=.&.>.F.F.L.L.L.G.A.C.g.W.g.).g./.T.T.~.B ~.V C V V V V V (.V B g q ~.|.*X*X3X6X5X1X<X>X>X$XU. X~.d.].) U P P Q P ",
"! } L L P y.g.,X3X9X7X*XF.>.-.$.% + o O O + O + o X ; , ; X O * * * = = - w j f.B.m.q.6.y.C.>X6X0XtXtXrXqX8X8X5X}.B./.) E @.Q O.",
"I } _ P S =.G.k.8.k.q.8.s.m.K.L.G.0.4 3 @ # # # # # > > % @ 3 3 4 y.W.=X Xd.h 6 - * = ; - : n.K.L.U.>X6XrXyXyX0X4X.XA.`.R E O. .",
"^  .Y / 5X3X=X< t h.e , ; - & 7 a a.|.:X>X-X,X,X3X3X1X1X<X;X;XoX{.{.B - + + + + = = ; , , $ i K.K.K.K.P.P.&X7XrX0X$Xz.a.W E E E ",
"_ } ^ K L.L.e.g s.6.z 1 1 1 1 , < p 1.7.u.f.E.).).).].|.|.|..XA.!.U.n.+ o + o ; , , 1 , , O 8 m.K.K.K.L.L.P.I.H.!.$Xx.$.S L P L ",
"_ _ @.G J.J.*.h.l.a b x x x z 1 e <.*.=.c.c.b.M.Z.K.G.K.K.K.L.L.P.P.K.$ + ; + 1 z z 1 , ; + > e.K.K.K.K.K.K.t.w.D.5.,.=.N R R R ",
"! +.+.+XJ.Z.*.h.l.y n n b x x z r 9.=.4.c.z.b.M.M.G.K.M.Z.K.L.L.P.P.J.- + ; = ; 1 1 1 , ; = - s K.b.K.K.I.Z.a p 5.,.:.:.C E J J ",
"X.^ +.+XJ.K.*.j.h.t m H m n b x t <.=.4.z.c.c.K.M.K.J.J.J.K.K.L.K.L.K.2 O , + z x x 1 , , = - a K.b.K.K.K.K.a i =.,.-.z.N P J _ ",
"} P @.[.G.K.*.h.w.e K J J m n b u 1.=.4.z.c.c.b.J.b.J.J.J.K.K.K.L.L.J.3 X X + * ; ; ; , , = O q b.Z.Z.K.K.Z.a q z.>.-.=.B R J L ",
"Y L ! `.b.b.%.j.w.< L L K J m b u 1.%.=.z.c.b.b.b.M.J.G.M.J.K.K.L.J.G.3 X X X * = ; , , , - O 6 Z.M.m.Z.K.P.g.y.=.>.;.;.C L Y P ",
"! X.I (.b.b.%.h.w.e E R I J m b u <.1.h.z.z.c.b.b.M.b.J.J.K.G.K.H.J.F.p + + + ; = ; ; , , ; . 7 Z.b.v.v.M.G.K.F.S.,.:.:.h E ] _ ",
"Y Y ] `.b.b.*.h.l.< R R I I J n c 6.6.0.z.c.v.b.b.b.Z.G.J.b.K.J.K.H.F.5 + * + ; ; = , , , =   9 M.b.v.v.Z.K.L.G.S.,.-.-.k ) Y E ",
"I  .R `.b.v.*.h.l.e R R Y K J n c 1.*.4.z.z.c.b.b.G.b.Z.J.K.J.K.L.J.G.p O O + = = = , , , ;   6 G.b.m.Z.K.L.p.f 4.,.>.-.k K I | ",
"I _ E `.b.b.*.h.0.e R R R I J m c 1.*.=.z.z.x.b.b.J.J.J.J.J.K.K.L.J.G.3   O + * = ; ; , , = . q G.Z.Z.K.L.Z.d i 4.S.-.-.B  .] J ",
"I R _ [.J.K.*.h.h.t R R R K J n c 9.=.=.z.c.c.b.b.Z.b.J.K.K.K.L.L.L.H.3 X + O + = ; , , ; = X i K.Z.K.K.L.J.a i 4.S.-.>.V } Y | ",
"I | Y W b.K.*.h.h.y R R K L H n v 7.=.4.z.z.v.b.G.K.Z.J.K.K.L.L.L.L.L.% X + + + = - , , ; = $ d J.J.J.K.L.K.a p S.S.,.S.A Y ! } ",
"R Y P W K.Z.*.0.l.a R R L L J n v 8.=.=.z.z.v.v.b.b.Z.J.K.P.L.L.P.P.I.# X + + + * ; ; , , = - e.J.J.K.L.L.I.B.k.D.F.D.D.N Y X.^ ",
"+.E R ) K.G.q.f l.8.H H J D D n v 8.=.h.l.V.Q.}.|.|.|..X.X.X XU.U.U.A.+ X + + + * ; ; , ; * : k.J.K.K.K.L.P.P.Y.2X2XH.5.G Y Y U ",
"| ] #.#.>X%XC.; h q.v b x x z r t g i.).XX.X=X:X:X;X;X;XoXoXoXXX{.].j = X + + + = = ; , ; o i J.J.K.U.L.U.,X8XtXqX2XK.V.W L +.L ",
"E | @.E @XU.%Xg.y w.8.g a i.N.I.K.m.q.s i i 0 3 % % 6 w 2 3 4 p a.}..X>X Xg.h 6 % * = ; ; % n.K.K.!.*X8XtXyXtXqX7X#X}.[.] ^ ( L ",
" .I Y D | s s.%X&X&X<X!.x.,.-.%.4 7 9 9 w 9 9 8 8 > e r ; % : : > > > > 9 q d u.C.v.0.6.u.C.-X6XqXtXtXrX8X7X7X5X|.C._.) Q ( ^ U ",
"_ +.Y U P F <.j.M.K.L.P.U.L.H.M.V.p.R.T.k k k k j l M M B M M B k B k B B C M y 0 j g.!.&X,X4X4X>X,X<X,X*X!.Q.d.d.{.W ! L X.X.} ",
"_  .H I L +.Q Z i.e.2.%.&.&.-.&.:.3.h.*.*.e.p.R.R./.^.~.R.W._.W.^.^.^./.^.~.Z j 5.T.V /.e.2.c.Q.:X<X:X!.m.k.u.Z W J L ! ( +.Y } ",
"H } I wXX.| ..} } P X.! ( U O.E P L W J E K I ] D ^ Y L ^ I wXH E J Y L X.L D OXV.P L J ^ U L Q ..} J ! I ! _ ^ +.H ! ^ ! ^ X.U ",
"Y I Y Y P } Q L P R / ^ ( K L R R L ^ L ] I ] I ` ! P L ` ! _ H Y } } U Y Y D S W ^ Y L ^ H ^ } } J ..J ! Y Y L ^ ^ ^ } Y ^ X.` ",
"^ I I ! ! ^ L X.L } ^ Y L } L P ] P J ^ E D E  .L } } ! ! ! I ..#.@.L Y ^ J Y L L H J H L ! } ^ ^ Q ! P ! X.| | _ I +.^ +._ | ! ",
"! Y ..^ ! L Y Y D P D Y J J } ^ E R P } ( E U ^ ! ! ` ....I ` wXY  ._ L ^ Y J } L ^ ^ L L Y ` ! P Q L } Y ^ Y L ^ L ^ L L +.X.+.",
"^ wX} L I ! H Y ^ Q ..Y ` ! P I ! ^ ^ J J Q P L ^ L P X.! I ! ! ! ! _ ! _ } H Y ! L Y ` ` E Y E ^ ^ L D Q | ..^ H I ! ` | +.I } ",
"Y } | X.` wXY | ` ....! I ! ! ! P H } L P J L J P P Q Q ` I ! ....! Y I ! I ^ ! _ L D Q ^ J J  .Q L / ! L X...} _ I L L } H L ^ ",
"^ _ ! Y ` ` ! Y I ! P ! L wXI L _ ^ L L P P P ^ D D ^ P ! ` ` ` I +.I ^ L } I ` Y ..^ Y ^ D E L ( U J } Y ^ Y P H ! } U ! ! H U ",
"! } ! Q ' ` H ` ` ^ ! H I I ! ^ P ! ^ L P P L L J D L ^ H ^ Y ! Y ^ _ ^ L L _ I Y ^ E L P U E K E ( / P Y } ^ X.| +.+.Y eX! ..I ",
"} L wX| Y Y L Y ! H wXL I ..! H I L L ^ P D L I D L ! ^ ! I ! H I Y ! L L L ! ! L ^ ..^ L L L P L E E Y Y ^ _ J I ! wXY H I ' ' ",
"} +...H I ! ^ I ` ! ! ! ! ! ^ I ! L ! ^ U D } P H L ^ ` Y H H } I ! L ! U ^ _ ! P ^ L ! U H E E L E U J ^ ^ ^ J ..` H ` I I wX` ",
"! _ _ ! } I | } Y I ` | H I U I ! L J U P P P D L L H I J ! ..` ..! wXY } Y ! L U ^ L _ P ( Q ( L J K ^ I _ Y H I H H ..H H Y ..",
"^ ! ! _ ^ ^ wX_ ^ I ! ! ` ! ! I L J ! H L D H J H ! Y D U L ! I ! wX^ ^ H I _ } ..^ L ! } L ( Q L E | ^ L L Y P ! H I ! I ....^ ",
"H wXH wXwX! ! Y _ H ! L | ! ! ! P ^ P Y Q L ` Y ^ ! ` P H ^ P P } } P } ( / P +.P P / } ( L / P P P P ! ` L D Q ` H ! I wXwX! ..",
"! ! I ` ! wX| ` ` Q ! L L | ! L ^ L ^ L ^ } } L ^ H P ! Y Y ! ..L Q Q P } L ^ } P / P L ( } } L X.P ..` I L ^ wX' ! | } } _ ! ` ",
"| wXH Y wXI ! ! wX^ I ! L ! wXY ^ Q ^ L L D Y J Y Q ^ H U U ! ` L ( J Q ^ ! ! J P } Q ..Q } Q P ^ P ..! L ..Q ..I ! I ..| I ..Y ",
"^ ! Y wX^ Y ` ! L H ! ! ! ! Q ..P P ( } H _ ! Y I H ! H Y I H } L L ^ / wXD L } ( ..O.( / ( P D L P L ` H ..^ ^ ' ' I ..! I wXH ",
"^ ! wXwX! ! L | I ! ! I ! wX` H ( P L ^ } L ` U H H Y I ! Y L Y ] L P ( ^ L J ( Q D Q ( ! ! ! ^ ! U } L } P ( ^ ! ! ` I I | Y L ",
"I ^ wX^ wXwXY ! ` ! ! H ! ! Q ^ wX( P } P Q wXL ! I I H Y I U P P J } L L ( H L } X.( ( } L ..D H } ^ P L wX! } ! ` wXI ` ` ^ I ",
"wXI I I ..! ` wX` ` wXI Q } } U ( ^ X.` P P ` ! ! H ! ` Y D ( ( P P } ( ( @.Q ( } P P ^ U P ^ wXwXP ^ P | P ..| wXH ..wX` ! | I ",
"I _ ! ` L wX! ! I I / / ^ ^ P ^ P P ^ ^ P ! I ` ! H ! I L +.L P ( O.( O.( } P ( / P Q ^ L Q D P ! ` Q Q ^ } L | ` ..! Y wX` ! I "
};
