/* XPM */
static char *_4106ae9a2fc4624c8af4cf6c2aaa0d3II5tuk4Q34AGprt6[] = {
/* columns rows colors chars-per-pixel */
"64 64 224 2 ",
"   c #0E0D0D",
".  c #110E0E",
"X  c #141414",
"o  c #1A1616",
"O  c #181817",
"+  c #1C1B1B",
"@  c #310E0E",
"#  c #241415",
"$  c #281B1B",
"%  c #371B1B",
"&  c #31201F",
"*  c #201F21",
"=  c #242424",
"-  c #2B2222",
";  c #2C2C2C",
":  c #322424",
">  c #392525",
",  c #3A2A2A",
"<  c #323232",
"1  c #3C3231",
"2  c #3C3C3C",
"3  c #411616",
"4  c #4A1819",
"5  c #681C1D",
"6  c #7C1F1F",
"7  c #4D2525",
"8  c #4C2827",
"9  c #442B2B",
"0  c #4C2B2B",
"q  c #572728",
"w  c #5B292A",
"e  c #512E30",
"r  c #443132",
"t  c #493838",
"y  c #543435",
"u  c #5E3332",
"i  c #593C3C",
"p  c #642526",
"a  c #6C2224",
"s  c #6D2B2C",
"d  c #782627",
"f  c #732A2B",
"g  c #782F31",
"h  c #663637",
"j  c #753738",
"k  c #7A3A3B",
"l  c #6E403F",
"z  c #753E40",
"x  c #434343",
"c  c #4B4B4B",
"v  c #5D4243",
"b  c #5C4849",
"n  c #545353",
"m  c #595758",
"M  c #5B5B5D",
"N  c #6D4343",
"B  c #6E4D4E",
"V  c #744445",
"C  c #7C4344",
"Z  c #76484B",
"A  c #7E494B",
"S  c #7C4F52",
"D  c #6E5558",
"F  c #7A595B",
"G  c #5D5E62",
"H  c #6F5E63",
"J  c #785F62",
"K  c #5F6164",
"L  c #636365",
"P  c #6B6265",
"I  c #65666A",
"U  c #68676B",
"Y  c #66696B",
"T  c #6A6B6D",
"R  c #6D6D6E",
"E  c #77676A",
"W  c #6C6B70",
"Q  c #6B6C70",
"!  c #6B6E70",
"~  c #6C6D71",
"^  c #6D6E71",
"/  c #6E6D72",
"(  c #6D6E72",
")  c #6E6F73",
"_  c #706F73",
"`  c #706F74",
"'  c #786C70",
"]  c #6D7172",
"[  c #6E7173",
"{  c #6F7074",
"}  c #6F7274",
"|  c #717172",
" . c #707175",
".. c #727275",
"X. c #717276",
"o. c #727377",
"O. c #717476",
"+. c #737578",
"@. c #747579",
"#. c #747679",
"$. c #75767A",
"%. c #76777B",
"&. c #78777C",
"*. c #75787A",
"=. c #77787C",
"-. c #797A7D",
";. c #797A7E",
":. c #9C181B",
">. c #A2161A",
",. c #AB1418",
"<. c #A51B1D",
"1. c #AA1B1D",
"2. c #B41317",
"3. c #B51519",
"4. c #B61519",
"5. c #BB161A",
"6. c #BD1A1D",
"7. c #8C1F21",
"8. c #921F20",
"9. c #991D21",
"0. c #A71D20",
"q. c #AD1E20",
"w. c #B61E22",
"e. c #832628",
"r. c #8A2628",
"t. c #832A2C",
"y. c #932224",
"u. c #9D2325",
"i. c #962728",
"p. c #9C2729",
"a. c #922A2D",
"s. c #882E31",
"d. c #9F2E32",
"f. c #833234",
"g. c #8C3234",
"h. c #863538",
"j. c #833C3D",
"k. c #8D3B3C",
"l. c #933436",
"z. c #9C3234",
"x. c #933A3B",
"c. c #9A3C3D",
"v. c #A42626",
"b. c #A32629",
"n. c #AB272A",
"m. c #A1292B",
"M. c #B22425",
"N. c #BE2326",
"B. c #B42628",
"V. c #B52B2C",
"C. c #BC2B2E",
"Z. c #A62F31",
"A. c #B42F31",
"S. c #BD2E30",
"D. c #A93335",
"F. c #A73638",
"G. c #A23B3D",
"H. c #AA393B",
"J. c #BD3132",
"K. c #B8383A",
"L. c #C11A1D",
"P. c #C31E22",
"I. c #C62528",
"U. c #C22C2E",
"Y. c #CA2F2F",
"T. c #C22F30",
"R. c #C43133",
"E. c #C93436",
"W. c #CC3639",
"Q. c #C43A3B",
"!. c #CC3A3C",
"~. c #D2383B",
"^. c #883F42",
"/. c #953E41",
"(. c #9A3F42",
"). c #A53F40",
"_. c #CD3D40",
"`. c #854245",
"'. c #83454A",
"]. c #8C4548",
"[. c #83494D",
"{. c #954648",
"}. c #9A4B4C",
"|. c #844E51",
" X c #894D51",
".X c #9B4E51",
"XX c #885558",
"oX c #9A5557",
"OX c #A54749",
"+X c #AC4B4D",
"@X c #BC4345",
"#X c #B74849",
"$X c #AB5556",
"%X c #B85859",
"&X c #8A5C60",
"*X c #876164",
"=X c #9A6164",
"-X c #C74749",
";X c #D24245",
":X c #D54749",
">X c #D54B4D",
",X c #DB4A4D",
"<X c #C64F51",
"1X c #D44F51",
"2X c #C65657",
"3X c #CB5354",
"4X c #D65254",
"5X c #DA5355",
"6X c #D45A5B",
"7X c #DB5A5C",
"8X c #E44B4C",
"9X c #E45A5B",
"0X c #E15F61",
"qX c #DB6264",
"wX c #E76668",
"eX c #EB6F70",
"rX c #EF6F71",
"tX c #F37A7B",
"yX c #F8797A",
"uX c #7D7E81",
"iX c #808185",
"pX c #F78687",
"aX c #FB8D8D",
"sX c #FC9595",
/* pixels */
"I Q } $.) Q +.} } Y ` W ) W ` ` T G ) W Y W U W ` U X.` @.` @.` H Y *.Y T T G Q ` Y Y U ) ` U U ` U W ` ) } Y Y Q Q %.T } Q Q Q ",
"T X.T ) o.X.I +.o.+.Y o.Y Q T %.%.W U W ) U W ` ` R uX` ) @.W / ) ) G I Q Q K Y Q / U U ` @.) / W o.` W Q $.} ) +.+.) o.( Q Y $.",
"Q Q } } } uX+.Q X.Q uXQ Y ) ) G G ;.Y ` ` ) $.X.L H W U I ` L I Y Q Q T K Y Q Q Y %.o.Y o.U / uXW Y ) W Y ) T } Q Q uXuX+.O.} Y ",
"I T } Y T } } Q ) } I ) Y ) ) W ` W W W _ T K R ) I U ` ` Y I W Y Y T Q Q Y K K Y ) Q o./ U U ` I o.@.W Y Y T Y } Y Y } +.uXQ } ",
"I +.T ) +.T O.} ) ) o.L ) Y Y I m W ` W ` %.$.) } I G uX) Q I I uXK Y Y K Q K Y Q Q ) G @.} I Q %.W W Q Q Q I T ) } X.) $.} } +.",
"T } T } X.I Q Y %.T +.I Q o.W W W _ X.R $.W ` W L Q Q Q ! H ` W Q Q Q Y K } ) Q L T G Y Y ) Q Y ) %.Q I } T ) o.Q ) Y o.Y K +.+.",
"} ) } X.X.X.Q Q $.Q I Y ) @.Y @.L ` X.` L U W Y o.Q Y } Y ) Q I +.Q Y Q Y Y K } Y X.X.W I / I Q I T ) Y I Q Q } Q } $.} +.Q ( Q ",
"X.X.=.iXT T K } Q I I ) W U U U T _ I _ X.` Y T o.T } ) X.Y ` ` K Y +.G Y } Q Q Y } Y W W L  .I Q ) Q o.G Q I } Y } } uX+.K +.Y ",
") +.*.Y Q Y K Q T Q I K Q X.Q T R ) I X.R U ) X.} ) I I ) Q uXQ Y Y K Y G Y Y Y Y G G Y G W Y I Y Q ( X.Q Q Y Q } uX} ) W ( Q Q ",
"uX} K K O.Y K Y G T ) Y } Y L I | R ) I T I ) Y I T Q X.) +.Q uX+.uXQ I Q K K Y G Y Y Y Y I Q I Y Q Y K O.[ Y Q } } Y +.( ) } Q ",
"Q uXY Y ) Y } O.Y ) ) Q L R R I X.R L T ) I } T Q } } T Q I Q Y X.Y K Y ) Q Y G Y ` G ) / W I W Y Y Y Y Q [ Q Q Y } Q Y K X.uX) ",
"Q Q Y K T $.Q Y G ) } ) Y R T Y T L I I T =.T I Q T G T I Q T T K Y Y Q ) Q Y K Q G G Q / I I Y Y Q uXY K uXK ( Q Y Y Q +.uXY ) ",
"Y uXY uXT $.$.+.=.Q +.T T ) _ R Y T T I G Q ) Q Y } Y I Q } Q T Q Q } G } Y G G I G W L U W / Y Q Q Y Y K Q ( [ [ Y ( ) Q [ X.Q ",
"Y K Q Q T X.Q K T T } T X.L Y | I Q G ) Q } +.) } Y } Y Q Y *.Y Q X.Q Q Y } G G W Q I W I I / / Y Y uXY ( Y Q Y Y Q ) Q Y Q } Q ",
"} Y K +.I I I } ) +.$.L R R I R $.K K } Q G Y Q Q Q I Y T T Q +.+.Y Y X.Q Q Q I I I G U I ` L U Q Q Y Y Q [ uXX.X.Y uX} +.} +.Q ",
"+.K *.+.} T T K ) +.X.) K I R R ) Q Q } } Y I Q Q K +.X.Q ] } Q Q Q Q Y uXG I Q I I W Y L W / W L I I uXQ X.Y Q ( G ) Y Y X.uX} ",
"uX+.+.K Y Q K ) I T Q T } Y W U ) ` W I Y Q Q I *.L Y } I ] +.Q =.O.Y $.+.| ! ] R Y R R | R R } ` ) G I Q G Y G W Q Y ) ) +.Y ) ",
"Y +.Q uX} uXY } +.X.+.} Y T W ) ) ` W I K I I I Y Y L } T Y =.*.O.T T T T | O.T O.R L R R L L | W Y ) Y Q / o.I %.G Q ) Q Y Y } ",
"} +.} I } } Q Q T T I } I %.I ` X.W L ) I I T E F G } Y T } } Q I X.} } Y T R R R R R R L | Y R W I Y / W _ W I Y Q } Y Y Y Y Y ",
"Q +.Q Q X.Q K +.} } Q Y Q G X.%.) I T W K I T G.&XM L =.Y Y Y T G O.Y R I T T L | R L R L R P P W @.W / U uXI ` } o.o.%.uXT %.G ",
"} Q =.o.Q I K E A g.n.A.@X3X6X<X@XB.9.s.'.C `.w.l ].].].'.].`.].{.}.(.^.].`.`.^.k.k.a.9.<.v.M.1.2.,.,.,.>.9.a.h.A ) +.I Y G %.( ",
"o.o.X.I Q ) oXx.x.K.~.:X5X5X4X6X7X0X5X:X_.c.k q u l V V V V l l V N N V N V l l j N l l C k.k.).S.Y.E._._.E.S.S.b.7.H Q Q Y uX( ",
"T ) X.W ' OXH.OX0XwXwXrXyXaXaXtXwX>XH.f.e.p.A.D.g.f w 9 , , , > > : : ; t r 9 8 9 0 w e 8 8 8 5 >.3.5.N._.4X4X1X-Xd.d o.G Q Y o.",
"Y ) ` ` &X).<X0XpXaXsXaXeX5X!.R.E.d.% ; ; = $ : 8 g c.@X1X%XOXl.d 5 4 3 q 8 % % 4 q w a d i.J.R.S.H.g.g u t.p.u (.:X_.=XY uXX.Q ",
"I $.I E H.Y.8XyXaXeX5X!.W.R.E.R.J.w o ; ; ; = = + + + O $ l .XoX$X$X%X2X2X6X3X3X3X<X#X+X}.j.s i t x c c n b i.N ; D.:X1XuX%.} o.",
"Q T U E w.Y.8X8X~.W.W.W.W.R.R.R.A.% + < < ; ; * + + + X + A.~._.Q.-X#X#X+X+X+X+XOX).F.m.v.<.g b M M K P L L e.m.g b.R.T.' Q Q +.",
"} X.T B P.I.I.P.n.D.E.E.R.R.T.T.a.: = < < ; ; = + + + X $ E.W.W.E.E.R.R.R.C.J.C.V.B.M.M.1.1.t.b M L L L I R s v.b.<.T.T.' T o.T ",
"X.} T S L.L.L.6.a s J.E.R.R.T.T.f $ = ; < ; ; = + O + X & Y.W.E.E.T.R.R.R.R.S.C.C.C.B.M.1.<.y.b m L L Y R R u p.b.<.S.T.F T X.I ",
"X.T | Z 5.5.L.q.p f R.R.R.R.T.T.p o * < < ; ; * + + + X % Y.E.E.R.R.R.R.J.T.T.C.C.B.M.M.1.1.y.v m L Y R R R y v.b.1.R.R.XX} Q Y ",
"I ) X.z 2.2.6.q.q f R.R.R.J.J.T.q . = < < ; ; = * O O   4 U.R.E.R.R.T.T.U.C.C.C.V.U.M.M.M.<.y.v m L P R R T r v.b.>.C.C.XXT Q T ",
"X.T I V 2.4.L.q.g x.W.E.J.A.S.J.7   - < < < ; = = O O O a U.Y.R.R.R.T.T.T.U.J.C.V.M.M.M.1.<.y.v n L Y R R R r p.b.>.C.C.|.T +.I ",
"W T ) j 2.4.5.P.I.R.R.J.V.V.V.J.7   ; < < ; ; = ; * = + 6 I.Y.R.R.T.R.T.C.S.U.C.C.V.M.M.a.e.f j n L Y P R R 1 p.b.>.C.S.[.} Q T ",
"| } T N 2.4.6.6.U.R.J.J.V.V.C.J.8   ; < < ; ; = ; + * + d I.T.R.R.T.T.T.T.C.U.C.C.B.B.M.v.:.7.i n G L U R R 1 i.v.<.C.C.[.Y =.! ",
"Y T T C 4.2.5.q.f.c.W.R.J.V.C.J.8 X ; < < ; ; = * X X X 4 I.R.E.R.T.R.T.T.J.C.C.C.C.B.M.<.<.8.i n M L P P Y 9 m.v.>.C.C.].R L T ",
"I L Y V 4.4.5.q.p s R.R.R.J.J.T.w + = < < ; < ; = X X X 4 U.R.E.R.R.T.T.T.T.T.C.C.B.B.M.q.1.8.i c m M L L P r p.v.<.R.J.XX-.Y O.",
"} L T B M.4.5.1.p s J.R.R.T.R.C.s $ = < < 2 c c x + 1 + % T.E.E.E.R.R.T.R.T.T.C.U.C.B.M.q.<.7.y c n m M M K y m.v.<.R.R.*X=.T =.",
"L L R B 2.4.6.w.5 a J.E.R.R.J.J.d - = ; < 2 2 2 < = ; X $ E.W.E.E.E.R.R.T.T.T.J.C.C.B.M.q.,.r.y x c c n n M u v.v.<.T.T.*X*.-.! ",
"U R R B ,.M.6.P.m.z.J.R.R.R.R.R.a.> + < < 2 x x < * < + + R.W.W.W.R.R.R.R.J.R.T.J.V.V.B.q.,.e.r x x c c c n f v.p.<.T.R.J -.} ] ",
"L T P F <.N.;X;XR.Q.W.W.E.R.R.R.V.9 O < < x < < ; O + O + Z._._.Q.#X+X+X}.OX}.{.{.x.x.g.r.y.a 9 < 2 2 2 2 x e.z.h a.E.W.E T O.} ",
"R } T E g.M.;XyXpXwX>X!.W.R.R.R.C.s + < < ; = * O * + + - C oX$X%X%X6X6X7X7X7X9X9X5X>X<X3X+Xk.s 8 & = ; < r u.y 1 #X9XqX] Y *.! ",
"=.| T E S K.#XwXpXsXsXpXqX4XW.R.R.Z.> ; ; = = $ 7 j (.@X#XOXg 5 4 % @ @ 9 , # # # # # @ 4 5 u.U.E.E.A.z.t.u.n.t.n.U.1.F T } | Y ",
"-.R -.T ' ].F.OXqXwXeXtXpXsXaXtXwX4XH.h.e.i.A.D.x.j 0 % * * * * * o + ; < ; O O O + O + o o O % :.4.5.P.,XwXrX0X5XG.f.I I I O.T ",
"U | P T R E .Xx.k.@XW.:X4X5X5X7XqXwX7X,X,X+X`.w h C A A '.V C C C V j '.k '.^.`.].x.x.{.{.c.G.K.S.E.W.E.I.I.4.,.v.g.T ] T } O.U ",
"| R } I L L L E `.a.<.M.E.-X4X3XQ.M.9.r.^.[.'.1.k |. XC [.A |.A }.oX{.XXS A A S |.C j.s.a.z.d.p.b.b.p.p.a.h.'.S D T | ] T Y T } ",
"U _ R X.R R ) L T T P | R R Y R ) R W T U $.) (.=X=.o.) iXQ uXG O.T L T T I ) T ;.Y G U R ) I L ` G I W R W L W +.W I W T } } T ",
"L @.U X.O.R T &.$.R L P L L R Y R I I ) _ _ I P J Q ) W Q ) G Q ) T } ) I X.} T X.T T I R I R L ) T uXI X.) Y U ) W ) W +.T +.Q ",
"&.X.) $.` Q R _ O.T M P R M P | R L Y I ) I ) I Q G Y } ) K Y } | I T } Y Y T T I K _ T %.L P R U W I I ` &.` W Q T &.` $.L X.T ",
"@.uX$.` @.I R U } Q Q | | Y P T R T I I Y W U U I Q I } } +.Q +.| O.T ) Y W ) ) Y Y R P ) T T | T W W ) L I W T I I Q $.R X.T ) ",
"X.T I W X.Q I o.I ) U I L _ ) | T T T | | | T T T K O.K I uXo.+.Y *.R Y T T L } | R | R Y P R R R T ' R ;.R ) L U L I ` ` uXW U ",
") $.T T Q Y Y K I I G T L X.P T T R R L } $.X.} } I +.=.uX} +.Y L ] *.T | | ! | L R | L Y R R R ) R ` T $.I G L ' U U L U W X.U ",
"Q +.} I G +.K K ) P I T M P | | | L $.I I Y } L T Q W } Y } ) } O.L L | *.T | L R R Y L R L L L ` W T W W U I U I &.L ` U L ` ` ",
"Q I I ) } Y K K I I I L M T T R $.R I Q L ) ) } X.T Y } Q Q $.Q L R R R R R | | O.R R P Y P R O.G I G M U W U L ` G U o.W o._ ` ",
"Q Y T Q Q T Y M R M K R T R | =.L ) X.T K uXK Y T T T Y } uXY X.R ] ] R T | P | L R P Y O.P L | U U _ I ` U L I W G G I o.W W L ",
"T Y K ) } ) Q K L | L R T Y E R Y %.` ) Q +.Q Q Q Q T I Y } ) +.R Y ] R } R L L L R L R L P M R U T P I R Y U U Y ) U W W W W U ",
"Y =.} I I I K K L Y Y L P L M | Y Q Q G ) T Y T } O.) O.T } } T R ] | R *.R | P M Y P | P R R R R G R L K $.I G ` &.W W ) @.` H ",
"I Q I Y K I Q Y L L P Y L R L L ) } Y Q Y Q Q Q ) O.T Q Q } ) T | R R R R | R Y Y P R Y R =.| R U L ` I I I K I T I Y Y W I ) } ",
"K Y *.K T } ) } R R P | | U } U I W W %.I W Y +.Y Q +.+.O.Y Q T } ! I T | U } I T L L L G =.| R Q T G K G G I Y T ) T I G Y Y Y ",
"uXQ Q Y K Y M Q I =.| M L } R M I I ) Q I Q Q ) Q } uXX.+.T T ) R Y I I Y } T L X.) R R T P | R Y Q K K Y Q G ) Q M } I G ) G I ",
"Q Y Q K G G O.Q I T Y L I L U I Q uXQ K T I o.$.Q } Q +.I Y $.) R -.T Y L Q T T L P | U | R R | L Y Q I Q Q Q Y Q Y K Q Q G ) T ",
"$.K Y T K T G I Y T } L _ $.L R ` X.W X.T T I Y ) } } Q X.} X.X.T R P | =.T O.T U ` R U R | R Q +.T Y ) Q Q Y K T G K Y Q Y T Y ",
"Y Y I Q ) Y K G W W R X.W U W W Q X.` ` Y Q G Y } K } $.=.*.} X.+.Q Y o.} T T X.` U U T Q } I T T } I o.Q } K Y K K Y K Q Y Q K ",
"Y } Q Y T G ) T I @.` _ _ U ` &.W Q ) W K } I uXI Q uXuX+.=.Q I Q } W T ) ) L ) W &.U W ` I } } Y Y T T } K } Y uX} ) T Y K K =.",
"} Q K Q T W I I W ` U R ) X.` ` Y } +.Q } uX+.Q +.} Y $.X.I I X.+.T L I L ` T ` ` W Q T X.uX} uXQ =.} T K Y uXQ Y Q Y G Y Q } Q ",
"T Q +.K T ) I I @.U I W _ ` U R +.Y Q Q Q T Y Q Q Q +.Y $.X.) T } T I ` G W T W @.uXI o.Y G =.o.T ) } Q Y Q K Q K o.} +.Y I +.T "
};
