/* XPM */
static char *_347f8e4165d42a7e4a4029c859a606auOVqhYjTPKLks0BE[] = {
/* columns rows colors chars-per-pixel */
"64 64 217 2 ",
"   c #0E0D0D",
".  c #110E0E",
"X  c #141414",
"o  c #1A1616",
"O  c #181817",
"+  c #1C1B1B",
"@  c #310E0E",
"#  c #241415",
"$  c #281314",
"%  c #231C1B",
"&  c #2C1E1E",
"*  c #331919",
"=  c #3D1D1D",
"-  c #31201F",
";  c #201F21",
":  c #242424",
">  c #2B2222",
",  c #2C2C2C",
"<  c #332222",
"1  c #392525",
"2  c #302A2A",
"3  c #3A2A2A",
"4  c #323232",
"5  c #3C3231",
"6  c #3C3C3C",
"7  c #411616",
"8  c #4B1415",
"9  c #4A1B1C",
"0  c #681C1D",
"q  c #7C1F1F",
"w  c #4D2525",
"e  c #4C2827",
"r  c #442B2B",
"t  c #4C2B2B",
"y  c #5E2425",
"u  c #552829",
"i  c #5B292A",
"p  c #512E30",
"a  c #443132",
"s  c #493838",
"d  c #543435",
"f  c #5E3332",
"g  c #593C3C",
"h  c #642526",
"j  c #6C2224",
"k  c #6D2B2C",
"l  c #782627",
"z  c #732A2B",
"x  c #782F31",
"c  c #663637",
"v  c #753738",
"b  c #7A3A3B",
"n  c #6E403F",
"m  c #753E40",
"M  c #434343",
"N  c #4B4B4B",
"B  c #5D4243",
"V  c #5C4849",
"C  c #545353",
"Z  c #595758",
"A  c #5B5B5D",
"S  c #6D4343",
"D  c #6E4D4E",
"F  c #744445",
"G  c #7C4344",
"H  c #76484B",
"J  c #7E494B",
"K  c #7C4F52",
"L  c #7A595B",
"P  c #5D5E62",
"I  c #6F5E63",
"U  c #785F62",
"Y  c #5F6164",
"T  c #636365",
"R  c #6B6265",
"E  c #65666A",
"W  c #68676B",
"Q  c #66696B",
"!  c #6A6B6D",
"~  c #766669",
"^  c #7A696D",
"/  c #6D6D71",
"(  c #706F73",
")  c #786C70",
"_  c #6E7173",
"`  c #727275",
"'  c #747579",
"]  c #78777C",
"[  c #76797B",
"{  c #797A7D",
"}  c #9C181B",
"|  c #A91317",
" . c #A2161A",
".. c #AD1519",
"X. c #A51B1D",
"o. c #AA1B1D",
"O. c #B41317",
"+. c #B51519",
"@. c #B61519",
"#. c #BB161A",
"$. c #BD1A1D",
"%. c #8C1F21",
"&. c #921F20",
"*. c #991D21",
"=. c #A71D20",
"-. c #AD1E20",
";. c #B31E22",
":. c #892326",
">. c #832628",
",. c #832A2C",
"<. c #932224",
"1. c #9D2325",
"2. c #962728",
"3. c #9C2729",
"4. c #922A2D",
"5. c #882E31",
"6. c #9F2E32",
"7. c #833234",
"8. c #8C3234",
"9. c #863538",
"0. c #833C3D",
"q. c #8D3B3C",
"w. c #913335",
"e. c #9C3234",
"r. c #9A3739",
"t. c #933A3B",
"y. c #9A3C3D",
"u. c #A42626",
"i. c #A32629",
"p. c #AB2428",
"a. c #A1292B",
"s. c #AC2C2E",
"d. c #B22425",
"f. c #B42628",
"g. c #B52B2C",
"h. c #BC2B2E",
"j. c #A62F31",
"k. c #B42F31",
"l. c #BD2E30",
"z. c #A93335",
"x. c #A73638",
"c. c #A23B3D",
"v. c #AA393B",
"b. c #BD3132",
"n. c #B8383A",
"m. c #C11A1D",
"M. c #C31E22",
"N. c #C82427",
"B. c #C2262A",
"V. c #C22C2E",
"C. c #CA2F2F",
"Z. c #C22F30",
"A. c #C43133",
"S. c #C93436",
"D. c #CC3639",
"F. c #C43A3B",
"G. c #CC3A3C",
"H. c #D2383B",
"J. c #853F42",
"K. c #8A3E42",
"L. c #953E41",
"P. c #9A3F42",
"I. c #A53F40",
"U. c #CD3D40",
"Y. c #854245",
"T. c #83454A",
"R. c #8C4548",
"E. c #83494D",
"W. c #954648",
"Q. c #9A4B4C",
"!. c #844E51",
"~. c #894D51",
"^. c #9B4E51",
"/. c #885558",
"(. c #9A5557",
"). c #A74546",
"_. c #A34B4C",
"`. c #AC4B4D",
"'. c #BC4345",
"]. c #BA4647",
"[. c #B24A4B",
"{. c #B74F50",
"}. c #A65859",
"|. c #B85859",
" X c #8A5C60",
".X c #876164",
"XX c #9A6164",
"oX c #C34546",
"OX c #CD494C",
"+X c #D24245",
"@X c #D54749",
"#X c #D54B4D",
"$X c #DB4A4D",
"%X c #C64F51",
"&X c #D44F51",
"*X c #C65657",
"=X c #CB5354",
"-X c #D65254",
";X c #DA5355",
":X c #D45A5B",
">X c #DB5A5C",
",X c #E44B4C",
"<X c #E25A5B",
"1X c #E65B5C",
"2X c #E15F61",
"3X c #DB6264",
"4X c #E56567",
"5X c #E86768",
"6X c #EB6F70",
"7X c #EF6F71",
"8X c #F37A7B",
"9X c #F8797A",
"0X c #7D7E81",
"qX c #808185",
"wX c #F78687",
"eX c #FB8D8D",
"rX c #FC9595",
/* pixels */
"! _ Q Q 0X/ ' Y Q / / _ Q / _ _ ' { T ! ` E ] ' / R / Y _ Q Q ` ! ' T ` ' _ ! E Q Q ' _ ! _ ! 0X` / Q ! _ _ 0X/ ' _ Q Q Q Q / Q ",
"Q / / Q Y Q ! Q Q 0XQ Y Q ' ' / qX` ` ( / / ! ' ~ / / T T T Q _ ! Q ` ! _ ` Q [ / _ ` / ' ' ` ' Y Q Y ' _ { / _ _ / _ ' Q / _ Q ",
"_ Y / E Y _ ! ' Q _ Y / Y _ Q Q ] ! W ! / T { ( ! T ! _ Q ! ! ! _ R ` ` W W Q Q _ _ ' [ / _ _ [ 0XY _ Q Q Q Y ' 0X_ / / _ _ / _ ",
"E / Q / Q Y Q Y Q Y / / _ Q Q / ` ' ` ' R / ! ! ~ L D F K G n n n n n J K D ~ ^ / Q E ` ! Q [ E _ _ / qXY Q Y Q { _ _ _ Q / / 0X",
"Q / Q _ Q P Y / P E _ / _ E / _ ` _ ` / T / ! /.w.X.o...;.+.+...O.#.O.#.m.M.d.c. X) / / ` _ / Q _ Q Q / Q / ' / Q _ _ 0X/ / 0XQ ",
"/ / Y Q ! P Q _ E E _ Q / _ Q Q T _ ! ! T ^ W.v.d.h.$.O.+.+.O.O.O.+.O.#.m.N.C.C.'.Q.~ E / _ [ / Q Q / 0X0XQ Q Y Q _ E / _ 0X0XQ ",
"E Y _ Y Y ` P _ / Y Q Q P P ! E ) Q / _ R ^.z.].+X+Xm.m.m.#.#.#.$.$.$.m.m.N.,X,XoXv.(.E Y / E E Q Q / ' Q _ Q Y E / Q _ _ _ Y _ ",
"E E Q Y Q ! Q _ Q Y P P Y E Y ` Q ( [ T U t.Q.3X8XU.m.;.-.=.d.m.M.o.-.+.m.N.,X9X4X_.t.R ' / _ / Y _ Y ' Y ' Q / _ / Q _ _ Q 0X_ ",
"' ! T _ Q T E ! E Y E W E ( E E ! [ [ ! K.q.3XwXwXA.3.j h y 7.B.V.x y h j s.H.eX9X3Xq.E._ Q _ Q _ _ Y 0XP T T Q / 0X0XQ Q _ 0X/ ",
"E ` ' ! ! ! ' _ Y E ( T T W E ! _ ! ! R 4.'.5XrX6XD.e.k k z y.V.A.t.z z k x.D.6XeX5Xn.8._ ! [ Q 0X' Q / ( ( Q / Y Q Q Q 0XE 0XE ",
"E W _ ! ( W ` R ! Q T P R R P W ! A T R =.D.6XrX#XS.A.b.b.A.F.A.l.G.A.A.A.S.D.;XrX5XG.s.! ! ] _ _ ` _ ' ( _ / Q E Q 0X0XQ 0XP _ ",
"! W ) ' T T A ` Q Q ! ! T ! / E _ T T _ f.@X9XwXG.A.S.A.A.A.A.b.l.S.A.A.A.C.D.G.eX9X@Xk.Q _ ! ! _ Y ! Q _ / Q E _ Q Y Y _ Q _ / ",
"' ! ( / ` Q T ! T Q ! Q A A T R ` ! R Q S.-XwX5XD.D.A.A.A.A.b.g.g.b.A.Z.A.A.F.D.6XwX;X'.! T W ` Y ! ` ! Q T / / W / / / Q W Q / ",
"` ` ! R [ T _ ! Q T R ~ ! Q ` / Q Y Q ! OX-XrX#XA.A.A.A.A.l.k.g.g.k.b.V.A.A.S.A.;XwX;X=XE ' ! W E _ Y / / / E ( W / 0XQ / / / / ",
"W ( / / T R ! _ T A ! [ R _ Q _ ! R ! Q =X;XeXG.Z.A.A.b.l.l.h.h.h.h.A.A.A.Z.A.A.G.eX;X:X` T ! W / E ! ` W / E W Q W / Q / / W / ",
"! ( { ! _ Q A Q R ` ! [ _ _ R ` R ` ! ! %X>X8XS.Z.A.l.A.A.V.A.l.b.l.A.l.Z.Z.Z.A.C.8X:X%X] ` ( W / / _ / E E E W E 0X/ Y / P 0X( ",
"' W ( W ' W W E 0XY Y Y ' _ Q Q _ Q ! _ F.3X5XA.Z.k.4.l k i w e e e u h l 4.s.A.S.5X2XI./ ` / / / ' E W ! ` ` ! ! W ! Z / Y { W ",
"W ( W ' ( 0XW / Q E 0X/ / Y _ ! ! T T ) d.4X-Xj.h r 1 > > O O .     . o & & 1 h j.$X2Xs.Q / ` ` W T ! W T ! ! / ( ` / / / ' / P ",
"/ ` / ` ( W ( / Q 0XQ 0XY 0X/ Q Q Q W ! 1.<Xv.< + + + ; : : , , 2 : : : ; : : o - v.;X*.Q T ! ! ! T A ! E Y / E T ` ' ( / E W / ",
"/ ( / / ( T W ' Q P Q Y _ Y Y ' T Q ( / :.$X7.2 4 , 4 , 4 4 , 4 4 4 4 4 , , , , 2 5.@X5./ / E E ` _ ` W E ! Q ' ( ( ! ( / ( / W ",
"/ Q E Q ! / Q Y Y 0XY P Y Y / E T _ ` ! K.$X,., 4 4 4 4 4 4 4 4 4 4 4 4 4 4 4 , , :.U.R.Y Q Y Q ' ! ! Y _ / ! ! ( T ' ( ( ( ( / ",
"/ 0X_ ! / E ! _ 0XQ 0X0X0XY 0X0X! T ( ] E.).2.: , M M 6 6 4 , , , 4 , , , , , , ; 1.P.G E Q E / Q P _ ! ' Q E Q ( W / ] W ( W W ",
"Q ' Y Y E / / Q Q Q Q Y Q / 0XY ! _ Q ! E.0.k.: : 4 M 6 N 4 , , , , , , , , , : % k.b J.! ! Y / E E ' _ / _ _ _ W ( ( ' T ' / W ",
"Q / 0X! E 0X/ _ Q E 0XQ / E / / Q Q R P.o.i x.& + 4 M M M , : : : : : : : : ; ; - v.i ;.c.~ E E / / / ! Y ! Q ' W W / / / ( ( / ",
"/ ' Q _ / / / Q _ / Q Q 0XY / Q Q / L XX0.c t.w o , 4 4 M ; ; , , : ; + + + + + w w.c b /.L E ' / / _ Q ! / E ` ` ` T ( / E / ( ",
"_ _ _ Y _ / 0XQ 0X/ _ Q Y 0XE Y ! E W [ E.F v v + + + : O + X + + + O O + + + + v z S G P T Q E Y / Q _ ! ` ! ( ! / / E E T / ! ",
"_ Q 0X/ / / 0X0XQ Q Q Q Q Q 0X0XE E ` ' ~.J p y.+ + 4 , 6 . O + ; + O + + + + ; y.i F T.E / T / ' Q ` E Y _ W Q / Q / P W / { ' ",
"Q ' 0X' / _ Q _ / 0XQ Q / / / Y ' _ ! / Y.T.; '.+ O + O O X . + + O   X X X X X '.r F R.' Q / _ _ Q Q E Q / ( E / ( / 0X( W ( / ",
"0X_ _ 0X/ Q 0X_ / Q Y Q / Q 0XY / / Q qXJ J ; {.> + % & 7 9 8 l >.0 9 9 * % + % &X1 H T.Q / / Q / Q / _ E / / / ( W / / ( E / ] ",
"' Y ' 0X_ Q Q Q Q 0X0X0XQ 0X/ 0X` T / _ J G ; I.n z.A.A.A.Z.V.B.B.V.V.A.A.D.b.n {.3 S T.Q _ Y / _ Q Y _ / E ] / W / T / W ' ( / ",
"/ Q Q ' 0X_ Q _ _ 0XQ E 0X_ 0X/ ! ! E [ !.G ; 7.}.G.D.S.S.A.A.C.V.C.C.S.S.H.U.Q.).3 S T.Y ' ' _ / / 0X/ W / W 0X( ( ( E T T / ' ",
"/ _ Q _ / / _ Q Q Q 0XQ Y / E 0X_ _ _ Y J G + h }.G.G.S.S.S.A.A.C.A.A.S.S.G.H.(.q.1 S J Q / 0X/ / ' E / E W 0X/ ( E / E / R / ( ",
"_ [ ! ` ! ! ! [ ! _ ! ! T [ T Q _ ` ) _ Q.Y.% 8 |.n.S.S.C.A.A.A.A.A.A.S.S.S.F.}.l < n W.T T ' ' / _ _ Q Y ' _ Y Q 0X_ 0XY Q _ Q ",
"! ! ` ! ! 0X! ! _ _ ! _ ! T _ [ [ T ! Q (.v + @ |.'.S.F.A.A.A.Z.V.A.A.A.A.D.'.|.y 1 n _.' ' ! ' ! ! _ / / Y 0XQ Q Q _ Y Q ! _ Q ",
"T T _ Q ! ! T T R _ ) _ _ T [ ! Q ! _ T W.G X @ :X`.A.A.A.Z.Z.Z.A.Z.Z.A.A.S.].|.8 1 S y.Q _ _ Q ! Q _ _ Q Y ! Q _ Q / Q Q Q Y 0X",
"_ T ! ` _ R Q ! _ R ! _ ! _ _ T ! _ _ ! /.J , & :X`.A.A.Z.A.Z.b.l.V.Z.Z.A.A.[.*X7 , S Y.! _ ! ' Q _ / Y / / Y Q Y Q Q Q _ Q Q P ",
"Y T _ _ [ T Q _ ! [ _ ! _ [ ! ! Q T ! ! E.m 5 a 3X_.A.Z.Z.Z.b.V.A.V.b.A.A.A.[.*Xu s S Y.W T Q ' ' ! Q / / / ! Y Q / Y Y / E / Q ",
"_ _ _ Q ! ! _ ! ` ! ! [ R _ ! ! _ Q ' Q J Y., 3 >XQ.A.A.Z.V.V.b.h.h.V.V.A.h.`.*Xe a S Y.W ! ` _ Q / / E / / Y ! _ Q _ / Q Q / Q ",
"Q ! T Q [ ! Q _ T [ R R _ _ _ Q _ ! _ _ J G O $ >XQ.A.b.A.h.h.h.b.h.A.h.b.h.`.=X7 r n K./ / ` / E Q T P E E Y ! / P / Y Y Q P Q ",
"_ ) _ _ ! ! T Q ! T T _ _ T _ _ _ Q ! Q !.0.O $ ;XQ.Z.b.V.h.h.h.h.h.h.h.h.b.`.=X= r n q.T / Q ) / Q P T Y Y Q Y / / / Q P / Q Q ",
"[ _ ! _ ! T ` / Q A T T [ ! T _ Q Y ' [ !.K.o # ;XW.h.h.h.h.h.h.h.h.h.h.g.g.).=X9 r n L.` ! ` ! W Y / W Q Q P E Q E E / Q Y / _ ",
"{ ! { R _ R ! T T R ! ! ! ~ _ ~ Q Y Q R J L.+ # ;XL.h.h.h.h.h.f.f.f.f.h.g.g.I.%Xe e n q.Q / _ ! / E W E E / Q E / 0XQ / _ 0X/ E ",
"R ! ! ! ! _ ! T ! ! T R ! R _ _ ! ` Q T 0.L.o # -Xq.f.f.f.f.f.f.f.f.f.d.f.f.x.{.h p n 4.Y ! T ! / P E E P P E P Y _ P _ / ( / Q ",
"[ ! ! ! ! Q ! R R [ ! ! Q T T ! Q Q Q Q 5.y.o * &Xw.f.d.d.d.d.d.d.;.d.d.d.d.a.`.h i n *.~ _ ! _ Y W / E / W Q Y / / E Y ( E Q Q ",
"! _ _ _ ! ` ! T ! R T ` R _ ! R ( [ ! ! 4.P.O 8 %X2.-.-.-.-.-.u.2.-.o.-.-.o.X.W.l t 0.X.Q Q ! ` E E E W / / / E W E P 0X( 0XW / ",
"T [ Q _ _ ~ ! [ [ ! Q Q T T ! ! ! E W _ r.y.O 0 ).&.o.X.o.X.X.&.>.X.o.X.X.o.o.0.a.e 0.p./ ! T Q / ( E / E / P / W / / ( E W 0X/ ",
"[ _ ` R ! ! ! ) [ ~ A T _ A R ` ! R _ T 6.c.O 1.q.j q %.%.&.<.%.>.&.&.<.<.,.,.c k.w t.-.R Q R ! / Y / / E E W P 0XP / W W / W W ",
"[ { ` ! ! [ ! ! ! ! ! _ [ T ! ! ` / Y Y i.n.= l.k 5 s d d d s v B B B B V V V d F.0 I...Q ! ` _ / W / W Q / Q E E / E / ( 0X/ W ",
"! ! Q ! [ T Q ! Q ! Q R Y / _ ! R W ! ` i.l.} S.w 5 6 M N N C C Z Z Z Z Z Z Z s I.| h.O./ W Q / W / E / Y Q Q Q / Q Q 0XY / Q / ",
"! [ ! _ Q Q ! Q T T ! ! Q / ! R ( ! / T a.S.+.S.; 6 M N C A A T T T T Q T T Y M k.O.Z.O.0XE E / W / W / / Q Q / / / 0X/ 0XY 0XQ ",
"` _ ! Q T _ T A ! ! Q _ A ! ` ` / W ] T 3.D.#.k.: 6 N N Z A T T R Q ! R T T T N w.#.S.| E W 0XP W / 0XY 0XQ Q / / / / Q / 0X/ / ",
"_ ! ! _ _ Q T T Q T R T A _ _ ! ( W T / 3.S.M.e., 6 N C A T T R ! Q ! ! Q T E N x M.U.| / / E E 0XW W W Q / Y / 0XP E / Q W Q / ",
"Q T _ Q _ ! Q A E T ! ` ! ! [ .XT / ` ! 4.N.$X,.4 M N Z P T W ! ! ~ _ _ / R T C m U.U. .E W / / E W Q Q E / _ / E E 0XQ E Y E 0X",
"_ T T ! _ _ Q Y E ' E ! ! ! Q _ E { ( / 9.N.5X2.a M C Z P T T ! ! ! ! ! / / T V l =XU.*.0X/ / Y 0X( Q / 0X_ _ / Q Q Y Q E 0X0XE ",
"Q [ _ Q T ! T Q Y E ! T Q E Y _ / / E T T.+.7Xp.*.:.k f d a a a 5 5 t d f k l 2.3.:XB.4.Y Q 0XE Q 0XE / P / Y Q E Q / E E E / E ",
"Q ! Q Q Y Q _ T E P E E T ! T T ! / ! / K ..2X,.d j.s.3.a.3.3.3.u.2.u.u.3.i.i.m f U.h.7.0XE P P / / E / / / / / Q 0X0XQ Q Q 0XE ",
"Y Q ' Q / Q / / ! ( T / ( R ( / ! ) ! [ R =.;Xp.5 g 1.u.u.u.u.u.u.u.u.u.u.u.n < P.U.i.J 0XY 0XE P 0XY 0XY Y 0XY Q 0XY Q 0XQ 0XQ ",
"' / _ Y Y Y P / T ] ( P P ] E T T W ! ! Q w.c.V.%X2.X.X.X.X.X. .X.X.X.o.X.X.u.v.U.6.:.( 0XW Q W P P 0XY Y 0XY 0XQ Q 0XE Y E Q 0X",
"_ Q _ E Y Y ` ! Q / W T W T W E Q { _ E _ W 7.o.1XA.b.V.A.b.h.h.g.h.h.Z.b.b.b.@XI.q Y 0X0X/ / Q 0X0X0XY 0XY Y 0X0X0XY 0XY 0X0XQ ",
"' Y Q Q Y / E E Q W / E ' / T ( ' _ _ ! _ _ T L 4XS.Z.A.Z.A.h.V.b.h.h.Z.V.A.A.#XI 0X0XY W E / / Y Y Y 0XY 0X0XY 0XQ 0XQ 0X0X0XE ",
"Q / Q Q / Q E P / / W ' / W / / ! [ ' ! Q Q Q Q _ ~ U U .X/.~.E.~.!././.L ^ ) 0X0XC 0XY [ Q Y 0XY 0XP Y 0XP Y 0X0XE Y 0X0X0XY 0X",
"Y _ Q Y ! P ! E E ' / / ( T W 0X` T ! _ Q _ Q _ Q ! [ [ [ [ ! ! _ Q ! _ _ Q _ [ [ Y P A 0XQ Y 0X0X0XY 0X0XE 0XY P 0XY E Q 0XE Y ",
"' / Y _ / / T E / ( W / / / ( ( ! ` ` _ ! _ ` ` [ ` ` [ _ Q T [ ! [ _ ! [ _ ! _ 0XP 0X0X0XP Y Y 0X0X0X0XA 0X0XY 0XE 0XY Y 0XE 0X",
"Q Q 0XY W W E E ' T W E ) / W / ` ! ! _ _ ! ! Q _ ` _ ! [ ` ! ! ! Q Q Q T ! [ _ Y 0XP 0XY P 0XY Y 0XY P 0X0XY 0XE Q 0XE 0XY 0XY "
};
