/* XPM */
static char *_defe13da2214c3de9c5eb48a575c083OXPObLKVdmrdWpdY[] = {
/* columns rows colors chars-per-pixel */
"64 64 217 2 ",
"   c #0E0D0D",
".  c #110E0E",
"X  c #141414",
"o  c #1A1616",
"O  c #181817",
"+  c #1C1B1B",
"@  c #310E0E",
"#  c #241415",
"$  c #281314",
"%  c #231C1B",
"&  c #2C1E1E",
"*  c #331919",
"=  c #3D1D1D",
"-  c #31201F",
";  c #201F21",
":  c #242424",
">  c #2B2222",
",  c #2C2C2C",
"<  c #332222",
"1  c #392525",
"2  c #302A2A",
"3  c #3A2A2A",
"4  c #323232",
"5  c #3C3231",
"6  c #3C3C3C",
"7  c #411616",
"8  c #4B1415",
"9  c #4A1B1C",
"0  c #681C1D",
"q  c #7C1F1F",
"w  c #4D2525",
"e  c #4C2827",
"r  c #442B2B",
"t  c #5E2425",
"y  c #552829",
"u  c #5B292A",
"i  c #512E30",
"p  c #443132",
"a  c #493838",
"s  c #543435",
"d  c #5E3332",
"f  c #593C3C",
"g  c #642526",
"h  c #6C2224",
"j  c #6D2B2C",
"k  c #782627",
"l  c #732A2B",
"z  c #782F31",
"x  c #663637",
"c  c #753738",
"v  c #7A3A3B",
"b  c #6E403F",
"n  c #753E40",
"m  c #434343",
"M  c #4B4B4B",
"N  c #5D4243",
"B  c #5C4849",
"V  c #545353",
"C  c #595758",
"Z  c #5B5B5D",
"A  c #6E4D4E",
"S  c #744445",
"D  c #7C4344",
"F  c #76484B",
"G  c #7E494B",
"H  c #7C4F52",
"J  c #7A595B",
"K  c #5D5E62",
"L  c #6F5E63",
"P  c #785F62",
"I  c #5F6164",
"U  c #636365",
"Y  c #6B6265",
"T  c #65666A",
"R  c #68676B",
"E  c #66696B",
"W  c #6A6B6D",
"Q  c #766669",
"!  c #7A696D",
"~  c #6D6D71",
"^  c #706F73",
"/  c #786C70",
"(  c #6E7173",
")  c #727275",
"_  c #747579",
"`  c #78777C",
"'  c #76797B",
"]  c #797A7D",
"[  c #9C181B",
"{  c #A91317",
"}  c #A2161A",
"|  c #AD1519",
" . c #A51B1D",
".. c #AA1B1D",
"X. c #B41317",
"o. c #B51519",
"O. c #B61519",
"+. c #BB161A",
"@. c #BD1A1D",
"#. c #8C1F21",
"$. c #921F20",
"%. c #991D21",
"&. c #A71D20",
"*. c #AD1E20",
"=. c #B31E22",
"-. c #BC1F23",
";. c #892326",
":. c #832628",
">. c #832A2C",
",. c #8C2A2B",
"<. c #932224",
"1. c #9D2325",
"2. c #962728",
"3. c #9C2729",
"4. c #922A2D",
"5. c #882E31",
"6. c #9F2E32",
"7. c #833234",
"8. c #8C3234",
"9. c #863538",
"0. c #833C3D",
"q. c #8D3B3C",
"w. c #913335",
"e. c #9C3234",
"r. c #9A3739",
"t. c #933A3B",
"y. c #9A3C3D",
"u. c #A42626",
"i. c #AB2428",
"p. c #A1292B",
"a. c #AC2C2E",
"s. c #B22425",
"d. c #BE2326",
"f. c #B42628",
"g. c #B52B2C",
"h. c #BC2B2E",
"j. c #A62F31",
"k. c #B42F31",
"l. c #BD2E30",
"z. c #A93335",
"x. c #A73638",
"c. c #A23B3D",
"v. c #AA393B",
"b. c #BD3132",
"n. c #B8383A",
"m. c #C11A1D",
"M. c #C31E22",
"N. c #C82427",
"B. c #C2262A",
"V. c #C22C2E",
"C. c #CA2F2F",
"Z. c #C22F30",
"A. c #C23031",
"S. c #C43133",
"D. c #C93436",
"F. c #CC3639",
"G. c #C43A3B",
"H. c #CC3A3C",
"J. c #D2383B",
"K. c #853F42",
"L. c #8A3E42",
"P. c #953E41",
"I. c #9A3F42",
"U. c #A53F40",
"Y. c #CD3D40",
"T. c #854245",
"R. c #83454A",
"E. c #8C4548",
"W. c #83494D",
"Q. c #954648",
"!. c #9A4B4C",
"~. c #844E51",
"^. c #894D51",
"/. c #9B4E51",
"(. c #885558",
"). c #9A5557",
"_. c #A74546",
"`. c #A34B4C",
"'. c #AC4B4D",
"]. c #BC4345",
"[. c #BA4647",
"{. c #B24A4B",
"}. c #B74F50",
"|. c #A65859",
" X c #B85859",
".X c #8A5C60",
"XX c #876164",
"oX c #9A6164",
"OX c #C34546",
"+X c #CD494C",
"@X c #D24245",
"#X c #D54749",
"$X c #DB4A4D",
"%X c #C64F51",
"&X c #D44F51",
"*X c #C65657",
"=X c #CB5354",
"-X c #D65254",
";X c #DA5355",
":X c #D45A5B",
">X c #DB5A5C",
",X c #E44B4C",
"<X c #E25A5B",
"1X c #E65B5C",
"2X c #E15F61",
"3X c #DB6264",
"4X c #E56567",
"5X c #E86768",
"6X c #EB6F70",
"7X c #EF6F71",
"8X c #F37A7B",
"9X c #F8797A",
"0X c #7D7E81",
"qX c #808185",
"wX c #F78687",
"eX c #FB8D8D",
"rX c #FC9595",
/* pixels */
"W _ E ) _ _ W T ( W ~ _ E ~ E _ ( ( E U ( ( _ ( ( _ W E T E E W ~ W ) ' W ~ ) ~ E ~ ~ ~ ~ ~ ~ ~ ~ R ^ ^ U R R ) R T E E I 0XT E ",
"~ E ~ ~ ( ' ~ _ ~ ( 0XE ~ ( _ 0XE W E ( _ _ W ( ( W ( ) W ( ( ~ _ T T ( ' ) ) _ ) ( ( ~ ~ ) ^ W ~ ) ^ ~ ~ W ^ ~ T U ~ ~ ~ K ~ ) ",
"W ( _ ' W I ( I W ( _ 0X( E ~ ( ' I W E I E W 0X' ~ W ~ ( ~ W ( E ~ 0X' ' ' W E ( T ( E ( E T ) 0XR T ^ W ~ ) T T W I E T E ~ E ",
"( ~ _ _ 0XE ( ( ( W I _ E E 0XE ( ~ E 0XW W I W 0X! Q Q (.(.~.W.W.W.(.XXQ J Q ) T T ~ W ~ _ _ E ^ W R ~ ) ~ ~ ~ K T ~ W E E E E ",
"W _ 0X( ( ( ( 0XE 0XE ~ ( ( _ E ~ ~ E _ U E ) oX-XA.A.A.A.h.h.h.h.h.A.A.A.A.D.3XJ T ~ ~ ~ ~ ^ _ ^ U ~ ) R ~ W R E I ~ I T E K 0X",
"' ( 0XW ) E ' ( E E ~ E ( ( 0X~ E ( ( _ ' Y :.H.#Xb.l.l.A.h.h.h.h.h.A.S.A.A.D.1X..9.Y ) T ^ ` W T R U R U R W R W _ I I T ~ T ~ ",
"( ) W E ( ( ( ( 0X( ( T T E T I W U W ) ~ <.e.@Xv.u.&. ... .}  .} [  . . . .4.%XB.y.8.T ~ W R T U R ` K K ^ ` U ~ K E I T ( ~ 0X",
"W _ ~ ( ( ( ( W ( ( E ~ ( T 0XE E ' E ) G u.+Xy., z u.u.u.u.u.u.u.u.u.p.u.1.x 5 i.;Xi.L _ ~ ~ R R ) Y ^ ~ U ^ ~ E ~ ~ W I ( T K ",
"T E 0XE K 0XT 0X~ E ~ ~ 0XE ~ ~ I U E ) 8.h.+Xd b p.u.u.u.u.2.u.3.u.3.p.u.p.e.s >.1XX.H ~ W W R I U R I R R K T E ~ E I E E E E ",
"T 0XI E K 0XT I E E E I E E 0X~ E ) W E ,.C.-Xp.2.>.l d s p p 5 p 5 p s d j :.u.u.7X+.D U T ^ ~ ^ K T R U R U U E I ~ E T ~ 0XE ",
"0X0X0XI T T 0XI ( ~ ~ 0XE E ~ 0XU ( ( ' <.D.-Xk B U W W W W W W W Y U I Z V m p 1.5Xd.9.~ ^ ' T ~ R R ~ R R _ U I E E ~ E T E E ",
"0XI E I I 0XI K E 0XE E E E E I W W W W { H.Y.b V U E W W ( / W W E Y Z V M m , 5.$XB.4.W ) ^ Y 0X_ W W ) W U T K E ~ ~ ~ ~ T E ",
"I T 0XI 0XK I 0X0XI E E E E E 0XU W ( ( { H.d.c M U U E W W W W T U U Z V M 6 , e.d.C.3.( U W ~ R ~ ~ C U T U R T I T ~ ( ~ E ( ",
"0XI I 0XE I 0XI T E ~ 0XE 0XE T U ( E W | C.+.8.M U U U T E Y E U U Z V M m 6 , k.+.F.3.T ' W W ^ ^ ~ K ~ T ~ ~ K I ~ E E E E 0X",
"K 0XT 0XI 0XT T E E E E 0XE E E ( Y U ' X.A.X.z.M Z U Z U U U U Z Z Z V M M 5 - D.X.C.p.U W W W R ~ ^ U W W I I I W I E 0XE 0XE ",
"0XK 0XK 0X0XT 0XE E T K E T ~ E ) W W W X.b. .S.a V Z Z Z C C V C V V M m 6 4 e D.[ A.p.) W W W W / ^ K E W W T ( E K 0XT E E E ",
"K 0X0X0XK K 0XK 0XK I K I 0XK 0X0XK 0XK #.c.0 D.s B B B N N N N f f f s s p 3 j A.= n.p.U U W ) R ~ U _ ( W W Q W W ' W Y ' ' ' ",
"I I I 0XK 0XV 0XK K I 0X0XI K K 0XK K K %.K.w k.j z ,.,.<.<.<.:.#.$.$.#.#.#.h q.<.+ v.e.E / U W ^ R U ~ U Z W ' ( ( W W E ) ( ' ",
"0X0XC K 0XK 0XK 0XV 0XK I K 0X0XK K 0X0X&.K.w 4.9... .......} :.$. . ... ...$.'.0 O y.e.W E Y E W W Y U Y W W ' ' W W ) ( Y ' U ",
"T 0X0XK 0X0XI K V 0XK K I 0XK K 0XK K K } K.i k Q.u...&.......3.u...*.*.*.*.2.}.8 O I.4.W W ' ( Y W W Y ) U U W Z Q ' W ( ( ( E ",
"V 0XK K V 0XK 0XI 0XK 0XI T 0XK 0X~ ~ R %.n i h '.3.s.s.=.s.s.=.s.s.s.s.f.s.w.&X@ O I.5.E U W E E Y Y Y W W ' Y Y W U Y W W W ) ",
"0XK 0X0X0XM 0XV K K K K 0XK K I L K R K 4.n i g }.c.f.f.f.f.f.f.f.f.f.f.f.f.t.-X$ O P.0.U E / W ( ( U W Y U W W U ( ) W W E ( Y ",
"V 0X0XK K 0X0XK I 0X0XI K I I 0XT 0X0XK L.n r y %XU.f.f.h.f.f.f.g.f.h.f.h.h.I.;X# + P.F W W I E ( W ( W W Y W U U Q E ( E ' ( ' ",
"K 0X0XV 0XK V 0XI K K I K 0XK K R R K 0XL.n r 9 %X_.l.h.h.l.h.h.h.h.h.V.h.b.Q.;X# + L.~.' ) U E ( Y W ' U U Z E W ( U E ( Q ) ' ",
"K 0XV K K T 0X0XK I I I K K T 0X0XT ~ K K.n 3 7 =X'.l.l.h.h.h.h.h.h.l.V.l.A.Q.<X# o 0.H W ~ E ~ ( ) U Q ( U Y W E U W W ' W ( W ",
"0XM 0XK K 0XK I I I E I V K E T T ~ ~ ~ ^.n 3 7 =X'.l.l.Z.h.l.V.l.V.h.A.A.A.Q.<X# O 0.~.( ( E ~ E W ( ( E Y ( T ( E W ' E U ( W ",
"M 0XK 0X0XI K 0X0XI 0XT I 0XE I R 0XR R K.n p w *X'.Z.Z.Z.l.Z.l.V.V.b.A.A.A.`.>X3 , b G E ) W ( W ( ( W ) W W ) W ( W W W ( ( ( ",
"0X0XK V K K K 0XK I I 0X0XE E 0X0XR T T K.n a i *X{.Z.Z.Z.Z.l.Z.V.b.V.A.A.A.`.>Xp 4 T.~.E E E E E W ' W / ) _ W ( E U ' ( ( U Z ",
"M 0XK 0XK K I I I I E 0XK T 0XI 0XK T R n n 2 7 *X}.S.Z.l.S.Z.l.A.A.A.A.A.S.'.:X* 2 b ^.W ( ( W E W ( W ~ W E ~ W E E ( ) W U ( ",
"0XM 0XI K 0XK 0XI E I E I 0XE E T R 0XI P.n < 8 *XU.S.l.S.Z.Z.Z.A.S.A.S.S.S.{.*X@ X T.Q.U ) W W W ' U ( ) / ) W U U W U Y ( E U ",
"K K K K K 0XK I 0X0XK T E T T E 0XR 0X0X).n 2 t  XY.Y.Y.S.Z.l.Z.A.A.S.S.D.D.[. X7 O b ).W W E ) ' ( W W W W ( ( W W 0X( W ( E W ",
"0X0X0XK 0XI 0XK I 0XT I E 0X0XT 0XR K K I.n 2 k |.Y.S.S.D.D.D.Z.S.A.S.S.D.F.]. X9 ; T.!.) W ) ( E U ) U W W W ( ) W W W ' W ' ( ",
"^ ~ T ^ T ~ T ^ ~ 0XE E ~ I _ W W ' W E R.S 1 t.).H.F.D.D.D.C.S.C.S.D.D.D.F.H.|.g % D G U ~ ( ) ) W ( W _ _ E ~ E ( ~ ( ~ T ( E ",
"0XR I T K ^ ~ ^ 0X~ ~ W ( ' ~ ( ' ' ) E E.b 1 _.!.J.F.F.D.C.S.A.C.S.S.D.D.F.H.).z % D W._ T E W ' ' ~ 0XE _ ~ E ( E _ _ 0XT E ( ",
"W ^ ) R ^ U ~ E W 0XI ( ( I W ( ( E ) E T.b 1 }.b b.D.D.A.V.V.B.V.V.C.S.D.S.z.b _.: D W.~ ~ T ) 0X_ ~ ~ 0X( _ ~ E E E _ ~ 0XT ( ",
"0X~ T ) ^ ~ T _ ~ E ~ E ( ( E ~ E W W E W.F 3 -X> % % * 9 9 0 q h 8 9 7 & % + - }.: D G qXE ( ~ I 0XE E ~ E E ~ 0X~ E ( 0X0X~ 0X",
"~ ~ R ^ 0X~ ( ( I ( E R E E E ( ( ( E _ R.S p ].X X X X X   O + + X X + O O O O ].> D G ~ W ( ) I 0X( ( E E _ E 0XE 0X~ ~ 0X0XI ",
"^ 0X~ R I W T ( R ~ ~ E E ) E ) E U ( U R.S u y.+ + + O + O + ; ; X X 4 , 4 ; + r.i D ^._ ( E E ) ( W E E E ~ W ~ 0XE ( E 0XE ( ",
"R R K R I ( ~ E ( ~ ) E ( E ~ I E W K K T.b l z + ; + + + O O + + X O + : + O + c c D ^.) W U W I E ( E ~ ~ _ _ E 0X( ( E E ( ( ",
") ~ R ~ _ I _ _ ) I ~ ~ E ( ~ W _ U J .Xv d q.e + + + + + ; : 4 , ; : 6 4 6 , O w t.x 0.oXP ~ E W ( W _ E ~ ( ( E E ~ ~ ~ E 0XE ",
"~ ^ ^ ~ / ~ R R ' E W T W ~ ( W U E ~ c.-.u z.- : : : : : : : : : : , M 6 m 4 ; > z.u ..y.Y T E E E E ( E ( R E 0XE ~ E E 0XE E ",
"~ R ` U _ ^ ~ T W ( ~ W ( _ E T ( I W W T.c g.; : : , , : , : , , , , M 6 m 5 : ; k.T.R.( E ( E T 0X( ~ T R E ~ E E 0XE I E 0XE ",
"R R ^ W 0XR R ^ E E T ' ~ ( K E ( I W U D I.1.: , , , 4 4 , 4 , , 4 , 6 6 6 m , : 2._.W.' W U W ( 0XE ) 0X0X~ ~ ~ E E ~ T 0X0XT ",
"W ^ ^ ^ ~ ) T _ E ~ ~ ~ T W W ( E I E I E.H.:., 4 4 4 4 4 4 4 4 4 4 4 4 4 4 4 4 , >.$XT.W ( ( E ~ ~ T I K T ( R E E E E I E E E ",
"R ~ ^ ~ ~ R ^ ^ ) W W U E ~ ~ ^ T T ) W ,.$X8., , 4 4 , 4 4 4 4 4 4 4 4 , , , , , 5.$X;.( ( Y E ( I T ~ R ~ K ~ 0XI K T ~ ~ ~ E ",
"~ R R R ~ _ ^ R Y ^ U U ~ K T ~ W W U W <.;Xv.* O ; ; ; ; : : , : , : : ; ; + + 1 v.<X1.W T W T E ~ 0XT ^ ~ ~ T T 0XE 0X0XE ~ 0X",
"K ~ 0XR R ~ ^ ^ ~ W W U W W U R ) ) ) T i.2X&X6.g = & > o . .   X O o > > 1 r j j.&X4Xf.W Y U W E ~ K ~ 0X_ ~ T E T 0XE 0XI ~ I ",
"R 0XK ~ K ~ U ~ ~ ) ) W Y T _ ~ ~ ~ ) W ].>X5XD.A.a.,.l g t e e e e u j k 4.k.A.S.4X3XG.^ W W ( W E ) _ I I T 0XT T K 0XI 0XI 0X",
"~ 0XK E I ~ 0XR R T R T W ~ ~ ~ W ~ ~ 0X%X-X8XD.Z.Z.S.l.V.A.b.h.l.b.V.A.A.l.A.A.D.8X>X%XW W ^ W ) W ~ ~ ' W ) Y E Z U ( W ] ) W ",
"^ R ~ ~ T T T T R T ~ W ^ W R W W ~ U _ =X-XeXY.S.Z.Z.S.A.b.h.h.h.l.b.b.A.A.S.S.G.eX;X-XY W U W W E / W ' W Z U ( W W U W / ) T ",
"~ ~ ~ ~ T 0X0XE _ T R ^ ~ T ~ Y T ~ _ I =X:XeX$XD.S.S.S.A.b.k.g.g.g.b.A.A.S.D.S.&XeX-X@XW Y U Y W ) T W W E Y T W ) U ) E E ) ) ",
"~ R R R ~ ~ E ~ ~ ~ K R E ) W U ) E T ~ Y.-XwX6XF.D.D.S.S.A.b.g.g.b.A.D.A.D.D.D.6XwX;XG.W U R _ U Y Z Z Y W E Y ( U Y ) W ^ W ) ",
"~ 0XR ^ K T E ( I E ~ ( W W T ~ W ~ ( E g.#X8XeXH.F.D.D.A.D.D.b.b.A.D.S.D.S.G.H.wX8X#Xf.^ T U ^ T ( W U W W U W ) Z I T _ / W W ",
"^ K 0XR ) 0XT I E ( ~ ( _ ( _ ( ~ ) E W a.J.5XrX-XF.D.A.S.b.F.S.b.D.A.b.b.b.F.#XrX6XH.&.T U Z R W Z E Y Z Y E T R ^ R ^ W ) W T ",
"R ^ ~ ~ ~ T R T ~ E ( ( ~ W _ _ E ` ~ ( 8.n.5XeX6XF.z.j l j t.Z.A.I.j j j e.G.5XrX3X].4.Y W R ~ ~ T E U U ( U U ~ _ W R ~ _ ) Y ",
"0X~ 0XR ~ 0X0XR W I I I ' E ( ( E ) E ~ W.q.3X9XeXJ.a.h g t z V.B.7.t g h p.C.wXwX3Xq.T.R 0X` ~ Y T ^ U W U U E W T T T ~ T W ) ",
"( 0XE ~ ( E ~ ~ ~ E ( E _ I ( I ( ( ( _ W r.`.4X9X,XM.@.*.*.*.M.m.=.*.*.=.M.@X8X2X`.t.P R ` ^ R ) T I I K I I E ~ ~ ~ T I E T T ",
"( I 0X( 0XE E I I E ( W _ W I W I T ~ I I ).v.OX,X,XN.m.m.@.m.+.+.+.+.+.+.m.@X@XOXx./.R ~ R W W E E I I E E I W ( C ( I I ~ E I ",
"E 0X0XE E T 0XT E I W 0X0X( W W ( ' ( ~ E ~ !.].C.C.N.m.+.o.X.+.X.o.o.X.| @.d.s.U.Q.! U ~ W ~ T E E ) E E ( T T ( E K ~ E I ( ~ ",
"E 0X~ E 0X( ( I W ) ~ E E W E _ T ( ( ( W ~ ! .Xc.-.-.m.+.X.X.X.X.o.o.s.| .. .w.~.Q ~ U ~ ^ ^ _ ) ~ T ( W ( T I ~ I K T ) E E W ",
"0X( ( E ( ( 0X0XE I E I qXE _ ( I ] E ~ ) E E ~ ! XXA H F b b c b b b A F A J Q R ~ R R ) ) ) ~ R ~ T ( ~ ~ T E E I I E ~ E W E ",
"E E ( ( E E ~ 0X0XI E E E ~ I 0X' ( ( ( ' ) ( ( E E W E ) / W ~ ( W W E W ( U W ~ ` T W ~ T ~ 0XE E ( T ( I ( E _ ~ ~ E I ( I ) ",
"E 0XE E 0X~ ~ ~ ( ~ 0X~ 0XI I E _ _ ) ' ~ ) ( ~ ' E ) ( W ( W W ) W U U U Q W ( _ ~ ~ ~ ( 0XE 0XT 0X_ T I E 0X( E ~ E I E ( ~ E ",
"I E ~ E E E ( _ E 0X~ ~ E E ~ _ ' ~ ( W ( ) W E U ( ) ) ) E ) W ( W E ( U W W W ^ 0XT ) T K 0X0X( ( ~ E ~ ~ I E I _ ~ _ E E ) E "
};
