/* XPM */
static char *_0bf86606b9b458cc08bc59a59b71696YuMMfoeasdwTapLK[] = {
/* columns rows colors chars-per-pixel */
"64 64 206 2 ",
"   c #575A5C",
".  c #5B5C5E",
"X  c #5D5E62",
"o  c #605F64",
"O  c #5F6164",
"+  c #636366",
"@  c #65666A",
"#  c #68676C",
"$  c #66696B",
"%  c #6A6B6D",
"&  c #706C6B",
"*  c #7A746A",
"=  c #6C6B70",
"-  c #6B6C70",
";  c #6B6E70",
":  c #6E6D71",
">  c #6D6E72",
",  c #6E6F73",
"<  c #706F73",
"1  c #6D7072",
"2  c #6E7173",
"3  c #6F7074",
"4  c #6F7274",
"5  c #717172",
"6  c #717276",
"7  c #727377",
"8  c #717576",
"9  c #757576",
"0  c #7C7672",
"q  c #767A77",
"w  c #7A7877",
"e  c #747378",
"r  c #737478",
"t  c #737678",
"y  c #747579",
"u  c #757579",
"i  c #78777B",
"p  c #75797A",
"a  c #76797B",
"s  c #77797C",
"d  c #797A7D",
"f  c #9C4C06",
"g  c #974F08",
"h  c #9D4C0B",
"j  c #9C510D",
"k  c #9A4E12",
"l  c #9C5113",
"z  c #945219",
"x  c #A44A04",
"c  c #AA4C05",
"v  c #A34E0A",
"b  c #A75606",
"n  c #AA5203",
"m  c #B35704",
"M  c #B45B04",
"N  c #BD5903",
"B  c #A65416",
"V  c #BC6504",
"C  c #B46017",
"Z  c #8E5A2B",
"A  c #945723",
"S  c #955728",
"D  c #8D5E32",
"F  c #AC6328",
"G  c #B26F34",
"H  c #C35A04",
"J  c #CA5E07",
"K  c #C56707",
"L  c #DC6701",
"P  c #D76905",
"I  c #CA7309",
"U  c #D67B08",
"Y  c #C86D1D",
"T  c #D26815",
"R  c #D87116",
"E  c #EA7804",
"W  c #F67A02",
"Q  c #F57907",
"!  c #E36E10",
"~  c #E77715",
"^  c #C87327",
"/  c #89674B",
"(  c #866C54",
")  c #826F5F",
"_  c #8D755D",
"`  c #A37149",
"'  c #A37B59",
"]  c #866E63",
"[  c #837365",
"{  c #857A67",
"}  c #83746B",
"|  c #837773",
" . c #827A74",
".. c #DC8B0B",
"X. c #E68C07",
"o. c #FB8203",
"O. c #FB8D03",
"+. c #FA810A",
"@. c #F88A08",
"#. c #E99A0A",
"$. c #FC9503",
"%. c #FC9C03",
"&. c #F7980B",
"*. c #FB9B0A",
"=. c #EE891E",
"-. c #F78B12",
";. c #F88A13",
":. c #F79C18",
">. c #FDA404",
",. c #FFAF01",
"<. c #F6A609",
"1. c #F9A709",
"2. c #FBAD0B",
"3. c #FDB102",
"4. c #FEBC03",
"5. c #F4B20D",
"6. c #F9B00C",
"7. c #E6AA1E",
"8. c #F6A615",
"9. c #F5A419",
"0. c #F6B110",
"q. c #F8B010",
"w. c #DE8433",
"e. c #E78527",
"r. c #F08D2F",
"t. c #EC912E",
"y. c #F59228",
"u. c #F39A29",
"i. c #E88A30",
"p. c #DAA72D",
"a. c #CFA238",
"s. c #D5A636",
"d. c #F6A328",
"f. c #EEA23E",
"g. c #F7A636",
"h. c #FCC001",
"j. c #B99342",
"k. c #B48457",
"l. c #89817D",
"z. c #90887F",
"x. c #B4906F",
"c. c #AE8F75",
"v. c #B08970",
"b. c #AF9074",
"n. c #C58147",
"m. c #C39E49",
"M. c #E49E5C",
"N. c #C6A147",
"B. c #EEA340",
"V. c #F3A74A",
"C. c #F6B04B",
"Z. c #F4B654",
"A. c #D29767",
"S. c #CA9B75",
"D. c #DFAA6D",
"F. c #DDA977",
"G. c #F2BB6B",
"H. c #F2C26C",
"J. c #F8CA7F",
"K. c #797580",
"L. c #7D7E82",
"P. c #837F85",
"I. c #7D8082",
"U. c #8C8C8A",
"Y. c #958B84",
"T. c #9F948D",
"R. c #949B97",
"E. c #A99A88",
"W. c #A09A96",
"Q. c #9CA5AB",
"!. c #A4A6A4",
"~. c #B4B1AC",
"^. c #B6B3B3",
"/. c #CE9F86",
"(. c #C4A484",
"). c #D0AF8F",
"_. c #E4BD92",
"`. c #C1AEA1",
"'. c #C2B2A6",
"]. c #E8C69A",
"[. c #F5D197",
"{. c #DFCAAE",
"}. c #CBC3BA",
"|. c #D7C5B7",
" X c #E6C8A6",
".X c #F7D6A7",
"XX c #ECD5B4",
"oX c #ECD6B6",
"OX c #BCBDC1",
"+X c #B4C0C4",
"@X c #C7C6C5",
"#X c #D1CBC8",
"$X c #D8D9CF",
"%X c #D8D7D5",
"&X c #F6DFC7",
"*X c #F3E6CA",
"=X c #EFE6D4",
"-X c #EBE5DB",
";X c #F3E8D7",
":X c #E7DFE3",
">X c #E7E6E5",
",X c #F1EDE7",
"<X c #F5EEEE",
"1X c #F2F2EC",
"2X c #EEEDF5",
"3X c #ECF2F3",
/* pixels */
"% 3 $ $ u 1 t $ $ $ $ 1 % 1 - 4 e d + % e + d w % # % + > $ $ 3 - t + 6 e 3 - $ $ - 6 3 - - % u u % $ $ - 3 u - 8 6 - O $ - $ $ ",
"$ - 3 # O $ % $ - K.$ $ $ 4 u - L.6 e < % < % w & % & + + @ $ 3 - $ > > > 8 $ u - 1 u - u u p p $ $ O u 3 L.1 8 3 1 6 8 - - 6 - ",
"8 O % $ $ - % 8 @ 3 O 1 $ - - $ u > + < = + d < & + 1 8 % % > % 6 % p p - - $ @ - 3 8 a - 8 - 8 t $ 3 - @ $ O p K.3 1 1 3 3 - 1 ",
"@ - $ - $ X $ @ @ @ 1 % 1 $ $ - e e e e # % % & 5 & @ % u % d % # > 6 8 u $ t t - - $ 8 - $ K.$ 6 1 - I.O - O $ I.8 1 - @ 3 1 u ",
"$ % % 8 @ X O 1 X $ 6 - > @ = 6 e < < = + % 8 + % w % 9 % % < % $ p K.1 1 t e u 3 8 - - e 3 - $ 6 @ 1 - $ = t - $ 6 8 t - 3 p - ",
"> - O @ $ O $ 3 $ $ - @ $ t # $ + % = = + 5 % + % % % @ + > d % u 1 I.$ 6 $ L.6 3 % - $ - 3 a - - @ 3 p t $ O $ - t $ $ 3 K.t 1 ",
"@ $ - O O 8   1 - O @ > X X $ @ < % % & # % % 8 + % 6 $ @ + % $ i 3 $ - - 6 % 1 3 p % $ O - @ $ @ @ - p - 3 @ O O - - 8 1 p @ 8 ",
"@ @ @ O @ - - 1 $ O X X X @ X e % < i + < # O $ + 6 $ 1 > @ > u - t - 6 1 1 - % 1 3 1 - t 3 , > O 1 O p $ 6 $ - 3 - @ 3 - - t 3 ",
"u = @ > # + @ % @ O @ # + 5 + @ 1 w u % % & $ $ $ # 6 < > = < # $ 6 t $ O K.- 1 - $ - $ > $ e @ > > $ p + + @ % - K.p 1 % u 6 6 ",
"# < 6 = = = e < X $ 5 O @ # @ & % # % # 5 % & . @ 5 % u o < e = - 1 - $ - - - - - $ - X 3 - t $ p 8 > - > > % % O 1 - % t = u $ ",
"+ # e % < # < + % @ + O + $ o # & . + + & + & + + @ % i # e + = $ e e $ - - = $ 1 1 3 K.- $ u > u e 3 t > > 1 + $ @ p u = i @ e ",
"% % < e + o X e @ @ % & + & % + 5 + @ 5 $ # & O * + w # < < < = - $ - $ - 6 O @ 3 3 3 @ $ - 1 $ % @ % % 1 = $ $ 1 @ @ O , # e - ",
"6 = < = e # X < O & & # .   + @ q $ @ # & + % & 9 & $ % % < # + - 1 - - = O # e - O - # - + @ e O - 6 - $ + > % % > > > # # # = ",
"< e # # e + < # # + + % % & 5 & + + + & + + 5 @ + 5 & 9 < @ # > 1 3 6 t $ = 6 6 O 1 > e + u = # $ - + - % % @ e # e e @ > > > > ",
"# < < = + % $ 1 +   & q # 5 $ 5 $ + & & + * @ % e > > % > u 6 + - 6 - 8 O t # > - > u > u o > % % $ % 1 & % + = # # - # - , # > ",
"% e i % & + O % + 0 % w & % & 5 & 5 + # # 5 5 < # e # + 5 + d @ 3 O - - = + 6 + $ - % # K.6 > # < % 5 % # @ @ % % u - @ - O d < ",
"6 # < % 6 % # # - @ + + w 5 % & 1 * p.6.<.3.6.3.5.,.5.3.5.3.5.3.6.2.2.q.2.2.2.q.2.q.2.2.0.N.< % > e @ & % 9 5 % % @ = . > + i % ",
"# < # e < i # < 1 - d t % + % % * p.5.3.3.3.<.3.3.3.3.3.3.3.3.3.3.3.3.3.3.3.3.3.3.3.3.3.,.,.m.6 % + % $ + % % > < 5 = = = u > X ",
"< e > 6 , # = % @ 1 3 t $ 9 % $ p.3.3.,.,.,.3.3.,.,.,.,.3.,.,.3.,.,.,.,.3.,.,.,.,.,.,.,.,.,.6.j.% + . % @ O > @ + 6 e < = + # = ",
"= < > > e + # i - X - - % $ $ 8 3.3.,.,.,.,.3.3.,.,.,.,.3.,.,.<.,.2.2.3.,.,.,.3.3.,.,.,.,.,.,.0.6 < 5 $ @ % @ e < < % < > < = % ",
"3 = @ $ % - $ $ - 1 - O O @ 3 3 ,.,.,.,.,.,.,.,.,.,.3.<...K M n b M I ..2.3.3.,.,.,.,.,.,.,.3.q.6 % - @ 1 % - % e + e 6 < < > % ",
"- t 3 - = @ $ - - - t K.4 @ t 3 3.3.3.,.,.3.,.,.,.1.U N m f j l l h h x n I 1.3.3.,.3.,.,.,.,.6.$ X > > t $ # # < # % i = < # % ",
"$ p # X $ 3 - $ - $ - O 3 3 4 $ 6.,.3.,.,.,.,.2.X.P H C ` { } w 9 [ ] Z j v m #.3.2.3.,.,.3.,.0.@ @ d > - 3 - > # < < e o e = # ",
"- - t - $ t 3 3 $ - 3 @ 3 @ - - 3.,.3.,.3.3.,.X.L T ' z.U.P.* _ ] 0 0 u } D f v X.3.,.,.,.,.,.0.% > % % @ $ $ u % # = < = e < = ",
"- t - 3 - 1 - = 1 3 - - 4 1 1 1 6.2.3.,.,.,.@.E Y b.W.Y.` F g f f h A ( * d / v b #.3.,.,.,.,.0.$ 1 3 $ - - @ 6 u 6 @ 8 < @ > < ",
"- 3 1 @ 6 - t 1 t 3 1 @ @ 3 @ O 3.,.,.3.,.>.E ~ (.Q.b.^ H M v l l h x x A [ i / f M 3.,.,.,.,.0.$ - $ 3 % 1 > > $ % % @ + + % $ ",
"e - p - 6 - t e = 1 - $ $ - t p 3.,.,.3.,.O.Q S.~.(.R P G ' l.K.q [ / z x z } 0 D x I ,.,.,.,.0.8 @ 3 @ @ - % # 3 @ > + # < w e ",
"$ p p p - 6 6 6 = 4 $ $ 3 e u O 3.,.,.3.>.W r.@X`.R E n.W.U.I.} } 0 t [ A f A w * v j ,.3.,.,.0.3 $ $ $ $ % < @ > 6 % K.< # e < ",
"a 3 t a e $ 6 6 - - $ , - $ L.O 6.,.3.,.$.Q F.+XM.Q w.~.!.v.F f g A ) d * k f ( d D x ..,.,.,.q.1 $ % 3 $ - - < < # = < < + < i ",
"3 # a t 3 $ - $ 3 3 3 L.- 3 t K.6.,.,.,.$.;.|.}.=.+.).OXS.L H x x f h ] q / x S u ( x I 3.,.,.0.1 $ $ 3 % @ p 1 % < + < # 6 e % ",
"- $ - e t t - e - 1 - $ p 3 K.t 3.2.3.,.O.y.%X X@.y.#X}.e.W E 8.#.b x Z 0 ] h h w ] h V 3.,.,.0.1 - p % - - < K.< < < + + + % i ",
"- 4 $ 1 6 - = $ - - t t - , @ t 3.,.3.2.O.f.%X_.O.B.$X{.+.O.6.4.4.7.x h 0 | z x } | k m 2.,.3.0.% u % - # # i = < + = + < # = < ",
"6 u % 6 % > = e % > # % @ 8 $ $ ,.,.3.2.$.V.-X X&.C.-XXX$.$.4.h.4.<.c v  . .B l }  .l M 6.3.,.q.> u % % O 8 6 $ O u 1 t $ $ 3 $ ",
"$ $ e % < K.# % < < # < % + 1 p 6.,.,.,.$.u.:XXX$.g.-X-X9.%.>.3.3.U P F Y. .v v  . .v V 2.,.3.6.% % 3 - % @ p % % 1 - O $ = - $ ",
"@ @ 1 $ @ $ @ + % 5 6 < < + w % 3.,.3.3.$.:.-X;X:.&.&X1X[.*.*.$.O.W R v.R.' H F U.{ v I ,.3.,.q.% $ - 1 @ O - $ 3 $ 1 % @ @ X K.",
"1 @ % e < # @ > % # = > % 5 % + 6.,.3.3.%.%.[.2XG.%.Z.,X3XJ.d.&.-.i./.!.E.Y J ' U.G H X.3.,.,.6.$ > - @ 1 - O @ O - $ $ 3 - - O ",
"X @ < % d @ @ > % e e % 5 q % $ 3.2.3.3.>.%.C.3X*X9.*.J.<X3X;XXX X|.OX'.k.L ^ T.z.C K >.3.3.3.0.u - $ - - 3 @ O $ - O O - O 3 - ",
"% > < % % % > $ e % % w $ 5 1 % 3.,.3.3.,.%.*..X2X.X&.%.Z.&X,X>X%X#X).i.W ! E.W.k.K U ,.,.,.,.6.# - > @ - > @ @ 1 1 4 - $ $ - - ",
"% > + % 9 - $ 1 % 9 + @ % 1 - @ 3.,.3.,.,.,.>.d.*X3X.X9.$.*.g.C.V.y.Q Q ~ `.!.x.T P 1.3.,.,.,.6.@ $ + X $ $ @ % % O - O O @ O O ",
"% < > < % % + $ @ + + * 1 + q 1 3.,.3.,.3.3.1.1.g.;X1X=XH.u.$.$.O.;.y.D.'.^.(.R L &.,.3.,.,.,.6.> # X + O X @ O % 1 % @ O 1 $ - ",
"e e < % # + e % @ . + + * - $ 1 6.,.,.,.,.,.,.>.%.d..X3X,X;XXX[.].{.#X@X}.A.~ E X.3.3.3.,.3.,.6.@ X > # @ @ X @ $ @ O - $ $ = 3 ",
"i = i # < @ & + + $ & & $ & % 1 6.,.3.3.3.,.,.,.>.%.*.C.[.=X-X>X$X%X|.D.t.Q W %.3.3.3.,.,.,.,.6.= + = + @ > $ + 3 p - - e t > # ",
"# < # % % * & + & $ + # & $ & * 3.2.3.,.,.,.,.,.,.,.%.%.1.:.u.V.f.y.;.o.o.O.<.3.3.3.,.,.3.,.,.6.= o # # X X $ X @ 3 X 4 = e $ $ ",
"e % % % # # % + $ 5 & % $ O + & 3.,.,.,.,.,.,.,.3.,.,.,.>.$.$.$.O.O.$.%.>.3.3.,.,.,.,.3.,.,.,.q.+ % = + > # % $ - - O $ , @ # = ",
"@ e 8 < $ 9 % O % + @ * $ & $ $ 2.,.,.,.3.,.,.3.,.,.,.,.,.,.,.,.,.,.,.,.3.,.,.,.,.,.,.,.3.3.,.6.+ @ o = - 1 % X = @ @ e = e > > ",
"+ p @ 1 9 % # 0 w % # @ + + & % 7.,.,.,.,.,.,.,.3.,.,.3.,.,.,.3.,.,.,.3.,.,.,.3.,.,.,.,.3.3.3.s.= e @ = @ - + - @ > > < # # e > ",
"u > 1 $ % & & 5 w %   + & + & & { 7.,.,.,.,.,.,.,.,.,.,.,.,.,.,.,.3.,.,.,.3.,.,.3.,.,.,.,.,.a.& > + > < @ @ > O e + > # @ < < = ",
"8 L.9 $ % 9 % & & % % 1 q + % % 8 { 7.3.3.,.3.3.3.,.3.3.3.,.3.3.3.3.3.,.,.,.,.,.3.,.3.3.3.s.9 % % # > # $ - @ @ @ > # % e i > # ",
"% - @ % p + $ & @ % # # + < & % % # % 5 5 > $ = > + e @ + K.p 3 e t O # + > , - % + % $ = - > 4 # = @ > O - $ $ = $ 1 K.$ = - > ",
"> w $ 3 $ $ % $ + + % # + & & % < % % + > e e > 6 @ u u K.6 8 - = - - = - # > # & @ 6 # i + @ 3 # = # > = $ - - = - u - 6 $ 6 $ ",
"e - - $ @ 3 O X 5 % @ 6 o % 6 6 = # i + % > # % - > % 1 $ 6 > 8 > - e > # e t - 6 # # # - + 1 O - - d + t = $ - - , - - u = e > ",
"- - - 3 - @ O O + + @ + . > % % > = + = X > < > 3 $ $ 6 - = u - t # + # e - - $ 9 % o # = , - + 6 # # = % 1 O - 6 $ $ - = % > = ",
"@ O - - 1 % @ X # o % < % % 6 i + < e = # d + - - % $ - - L.$ - # , % e # @ % 1 $ + < 5 $ - - - - - $ $ $ - 8 - O $ - = $ - - - ",
"1 $ + - 1 - - X # e # = > # + < @ u < = > t - - - - 1 % O p 6 a e # i # a a # O % < = < K., - O 6 3 - - K.- 3 1 - = $ > $ - u 1 ",
"$ K.1 @ @ - O $ o + # o % o X < = > @ + e > $ - 3 6 - > % 6 $ = # e e = < $ e + % # % < # = 6 $ - u - - O 1 $ $ $ = > @ % $ 6 $ ",
"$ - $ $ O $ 3 $ + o # # o % # o - = # > = = - - 3 u - 8 - 8 $ - 6 > e > , i 6 = > X @ + t $ O X - 1 $ > 1 % % - > > u $ $ 6 6 $ ",
"O % 8 O % % 1 - = < + < < # < % # , > t @ % $ 3 - 3 3 t p $ - - 6 t 1 1 - % 3 - % - - O 4 % t - - 3 - 1 % $ 8 4 > > > > 6 > p $ ",
"u 1 3 $ O $ . - @ i < o X i # + + # > = $ $ - - - t L.3 3 @ 3 - t $ 3 3 - % % O @ 1 1 % 4 1 $ - O $ - $ $ 3 8 K.1 1 1 > @ % 8 % ",
"1 % - + O O 3 $ @ = @ o # o # + = i , @ , $ t a - 4 - t @ - p - , t K.3 - $ % 1 $ O - p t - 1 $ - K.6 - ; ; $ - 6 p $ 6 - K.3 p ",
"t X - $ O - @ @ % % = # e < + < u 3 - - 3 , # # 3 - 4 - p 3 t 3 e 3 1 - p 4 1 @ - 8 - @ t - - - - 8 1 1 $ % 8 1 K.6 8 6 3 L.t - ",
"$ - $ $ - - + O % < % < % # % < - t e = % 1 $ - 3 @ @ 4 a t , 3 3 3 3 - - 4 3 I.$ X - @ I.@ - - $ p $ 1 3 O - 1 p 8 $ K.t p - 3 ",
"@ - $ O @ + - $ + e < % e + % d 6 X - , O 3 O 3 @ 1 K.a t L.- # 4 % 3 3 - @ 1 K.L.- @ O % 1 @ p 8 3 % 1 L.6 3 1 O - O - p p - - ",
"t - O 1 % = + @ < 6 % < < < e < $ e t 1 1 4 3 4 p 4 4 K.- $ @ p - 4 - - p 3 1 1 e - a p 4 @ $ $ K.8 3 8 $ K.> > p 3 u > % 1 $ - ",
"$ $ t $ # % @ # e + # o < < # % 3 - = - 1 - 1 @ 1 4 - 1 t 4 ; - - % @ @ @ % p 3 > t 1 3 O @ 3 1 3 - - - 6 8 - % $ 1 t 8 8 $ p - "
};
