/* XPM */
static char *_90f8a8e61da4f84e508920a13b881d38tuvWMe9ZTLNhioz[] = {
/* columns rows colors chars-per-pixel */
"64 64 164 2 ",
"   c #060504",
".  c #080504",
"X  c #090807",
"o  c #080708",
"O  c #0D0D0D",
"+  c #110F0F",
"@  c #12110F",
"#  c #141313",
"$  c #191717",
"%  c #191817",
"&  c #1C1B1C",
"*  c #201E1F",
"=  c #242323",
"-  c #282726",
";  c #292827",
":  c #2D2D2D",
">  c #30302F",
",  c #323232",
"<  c #383737",
"1  c #3C3B3B",
"2  c #454445",
"3  c #484747",
"4  c #484748",
"5  c #4C4C4C",
"6  c #51504F",
"7  c #565656",
"8  c #585757",
"9  c #575A5C",
"0  c #5C5C5D",
"q  c #5D5E62",
"w  c #605F64",
"e  c #5F6164",
"r  c #636365",
"t  c #686666",
"y  c #65666A",
"u  c #68676C",
"i  c #66696B",
"p  c #6A6B6D",
"a  c #6B6E70",
"s  c #6B6F70",
"d  c #6B6C70",
"f  c #6D6D70",
"g  c #6C6C71",
"h  c #6D6C71",
"j  c #6C6D71",
"k  c #6D6D71",
"l  c #6E6D71",
"z  c #6C6E71",
"x  c #6D6E71",
"c  c #6C6F71",
"v  c #6E6E70",
"b  c #6E6E71",
"n  c #6F6F71",
"m  c #6E6D72",
"M  c #6D6E72",
"N  c #6D6F72",
"B  c #6E6E72",
"V  c #6F6E72",
"C  c #6F6F72",
"Z  c #6E6E73",
"A  c #6F6E73",
"S  c #6E6F73",
"D  c #6F6F74",
"F  c #6D6D71",
"G  c #706F72",
"H  c #706F73",
"J  c #706F74",
"K  c #706F74",
"L  c #6C7071",
"P  c #6D7072",
"I  c #6D7172",
"U  c #6E7073",
"Y  c #6E7173",
"T  c #6E7273",
"R  c #6F7074",
"E  c #6F7174",
"W  c #6F7274",
"Q  c #6F7374",
"!  c #6E7173",
"~  c #707071",
"^  c #717071",
"/  c #717171",
"(  c #707072",
")  c #717173",
"_  c #727173",
"`  c #707273",
"'  c #727272",
"]  c #727273",
"[  c gray45",
"{  c #707074",
"}  c #717074",
"|  c #717075",
" . c #707175",
".. c #727175",
"X. c #707275",
"o. c #707375",
"O. c #727274",
"+. c #717176",
"@. c #727176",
"#. c #717276",
"$. c #717376",
"%. c #727276",
"&. c #727277",
"*. c #737277",
"=. c #727377",
"-. c #737377",
";. c #707475",
":. c #717476",
">. c #717576",
",. c #727477",
"<. c #727577",
"1. c #727677",
"2. c #747474",
"3. c #747476",
"4. c #747477",
"5. c #767676",
"6. c #777777",
"7. c #727275",
"8. c #797777",
"9. c #737378",
"0. c #747378",
"q. c #737478",
"w. c #737578",
"e. c #737678",
"r. c #737778",
"t. c #747478",
"y. c #757478",
"u. c #747479",
"i. c #757479",
"p. c #747579",
"a. c #757579",
"s. c #767579",
"d. c #747679",
"f. c #777679",
"g. c #75757A",
"h. c #76757A",
"j. c #75767A",
"k. c #75777A",
"l. c #77767B",
"z. c #76777B",
"x. c #757579",
"c. c #78777B",
"v. c #78777C",
"b. c #747879",
"n. c #75787A",
"m. c #75797A",
"M. c #76787B",
"N. c #76797B",
"B. c #767A7B",
"V. c #77787C",
"C. c #77797C",
"Z. c #777B7C",
"A. c #76797B",
"S. c #79797A",
"D. c #79797D",
"F. c #787A7D",
"G. c #797A7E",
"H. c #797A7C",
"J. c #7D7E82",
"K. c #7E7F83",
"L. c #7C7D81",
"P. c #7D8082",
"I. c #808185",
"U. c #818182",
/* pixels */
"p E i u k.M k.y y d d M d M M #.h.G.r p @.y H.8.p t v q E i i E d 9.y E #.E d y y d #.E d D d B.#.M d y M M k.M #.#.i y y d i y ",
"i d D i e y s y s k.y y e k.k.d P.P 0.J h h p 8.v v v r i e i E d i Y p Y #.i B.Y M >.d q.9.#.k.y y e k.Y L.M #.R M #.>.d s #.d ",
">.e p i y s s >.i Y e d i Q i i G.m y p p r c.v p t / / p d d d Q p N.N.s s i i d E >.B.Y E Y N.N.y Y s i i e k.L.Q s s Q R d Y ",
"y d i d d q y y y y s d M y i d J l.J 3.p p p v ' p t v @.p G.p i D Y q.k.u q.9.M d y #.d y L.e #.M d K.e d e i L.R R Y i R M k.",
"i p i E y q e M e y D D Y y d D 0.J J h r p E t p 8.t M.d p J h y k.L.#.M k.#.k.E #.d d #.E d i Y i d d y M >.M i R p.p.d d p.M ",
"D d e y d q y E y y D i d #.u u r H h h y @.d r p u m y y D l.p k.d J.i D i J.D E s M y d E B.d d y #.k.k.i y e d p.y i R L.p.M ",
"y y s e e E 9 E s e i i q q d y v p u H y p L Q r p Q t r y p y B.#.i i s Q M M >.q.p i e d i y y i s k.M R i e e d a Q Y 1.y >.",
"y i i e i d s d i e e 9 e e y D u H c.r m y r i r >.i L d y m 6.d q.M E Y M d s Y E L d q.Y E d e Y e >.y #.i s d Y i R s d p.R ",
"9.h y h u y y p y e t t r E y u / c.c.p p m u t u u 3.H h H J u i #.9.i y B.D M d u d d D i 9.u M E y N.e e e i d L.k.g M #.#.9.",
"y J 3.h p p h.h y y / r t t y d p u p t ' p t 0 t ' p y.w J 3.u M M d y i E u d d y d q E d q.i k.9.d L D E d d e d d g D g 9.u ",
"y p J h J p J y y y t q t u q u u 0 e t u t p t r t p c.u J r p i k.#.d d i p i d Y #.L.d i q.D q.q.Q q.E D L y e i k.L.p z.u #.",
"p u H 0.r q 0 @.y t p p r p p y L t t / p t p t [ t 8.p H H H u s i i y d Q r y Q d s y i d L p s y p p L d i y >.i e e @.p 9.d ",
"J h H h @.u w J r t p t 8 0 y y 6.p t p p t / t 2.p p t .         o r u p t p 9.d e p u d y u J e d #.d u r m d d m d D p p y h ",
"J 0.p y 0.t J p p t t p p t 3.p t e r p r r / t r / v q   .   .   o X - p p @.J y d J 9.y 9.d y y d y d / p t q.p 9.9.y h m h h ",
"u J H h r u u / r 0 p 5.u / u / t t p p t / t / 7 + v q .   $ * # o   . r y.4 8 g h 0.m J r d p d t t P u p r p p u p i d E u D ",
"p J D.u p t q p r 5.p 8./ / t ' p / t p t / 0 . . ; t r . . 5.u E r   . O r 3.  o 0 p p G.J m p m m / p t t u p p 0.d y d e h.D ",
"y.u m p @.u y u m y t r 6.2.p p / p p L t & X - h J m q . . 5.3.p p . .   p y d -   & / m @.m m m h.t t p ' ' m p r p 9 J r z.p ",
"u J p h.@.G.u m D d M.[ p r p u p t t m X X H.u y p p r . . ' p y J .     p y d y H.X . y m @.D p r p p r p p H h 3.h p h 0.D q ",
"H @.m @.D i m p y d M #.t b.d p r t t o + y u @.m 6.2.q     8 H J < .   = p d i y t y O o e s i d y q p y e D y y J 0.J h y p d ",
"h m m m E r p M.s q M s m t y E t t o @ u y m >.P p p q   . . . X   .   z.y M M e m h.u O X y y E E E t y i u #.J J h H h J u p ",
"s s y i p d t i d s s e e t E L t O X p p H r m y t i q . . . . . .   S.i q i i y e L Q e O $ i E s i y s s d d 3.r 0.J J H m p ",
"M k.E M d y i L d d #.L.>.i q.E 5 o m h.H p @.y y i B.e . . # = = 0 H H g u #.e d y r e y y o 5 i q M d k.y y u H u h l.p J p p ",
"y k.y q y #.d i M u d y M Y q.i o < u h d p y p y m t w . . 8.y p h 3.c.#.d 9.M y y E e i d <   y i k.M s M M M u h J 0.w 0.p p ",
"d d k.d i k.M #.y d M y E y P , o y y 9.y i r m m 0.3.0   . 3.E 0.d y u e y y y y q d i y Y y o < M M d y i u k.p p h J h J J h ",
"d >.s Y M M d s Y R s d #.i Y o 5 s i M.e L i Y E Q i e     @.>.y i i e y d s d i e e q e e y 2 o d E i s d t E @.@.r @.P y H / ",
"M Y M e Y Y >.M >.R d i d M p o p y p >.q.d L e e L i 0   o 6.>.i r s e y L y L d e s p e e i y o p i Y i >.d d i d d y y r p u ",
"#.d L.s R d L.#.d M s i y d % o y y E q.q.i t u + O O O O O O O O O X O O O O & d u i d e Y e d o & #.i y M p u E y d e y h H.3.",
"u k.L.#.d R R p.d 9.y i #.#.  1 9.E d d y q.B.3 5 5 5 5 5 5 5 5 5 5 5 5 5 5 5 5 1 r B.d b.i D E 1   y y i d J y m @.m G.J p J J ",
"k.#.>.k.R y #.#.d d i Y d i   d d E i P.D i E m i d E q.d E Y k.y y e d y L i y U.i m P y d d y P   d m u d d D 0.u h H J y h 0.",
">.e L.N.>.i d i Y R R L.s R   L.Q y L L d p U.Q b.p d p E L p E N.e y s e s s s p P e L i Q y D P o t L p y B.m u p r H p 3.3.H ",
"Y y d #.p.k.d M M M #.y k.M o k.p i y h.E h.[ d E d E z.d E #.i d s g d e d >.i d h.y d y E B.z.d   N.Y p h H D.J H J w y w p y.",
"M #.y D #.M g i s i k.#.d D   #.Q E d G.M.>.6.E D q.i i e d i d d M y y #.D d d i d d M.i d B.d p o y d y p c.h J y h y J y h J ",
"E k.d >.h p h 9.d h p p y E   t D E h O O L.5 p.p.L.d Y q.E p d #.d d #.y g u D t M 7 O @ e #.k.M   d i e >.#.y y k.M k.y y R i ",
"d i E d h L.u p m m p m p i   U.q.y p p E L.O O O O O @ + O + O O O O O O O O O O : e s p.p.s >.P.o D d i i k.d i d M e d d Y y ",
"e y m t y u y r p H @.P m t   7 i d @.r y O O 6 i Y & O % , > > > > > O O 5 y g # O = #.a Y d i 7   d E i e s y Y i s y i y e k.",
"E y p 9.H y y m h y d m d m   * m d d d q.O + d p.M q.O y M d i #.d e ; O g u &.L.O o y s M d k.& X d y d d e i e d y d M d d e ",
"q y D d B.y y D p 6.3.p v 5.2   i t d i i O # d M d y O 6 P q.p d d d * + u z.D y O o s y y p h.o 2 i d d E i q y d e e d e M d ",
"d D h p p m m p 9.p p 8.p / v   G.i 9.u e O O M d d * O , 0 0 0 0 q q # O d y d = O O y y p 3.'   d D y d D y p M d #.d d y d d ",
"u h y p >.p i Q u / t t / / L @ # p E L s 2 O O O + O O O O O O + O O O O + O O + O 5 p p m 3.O # i r q y y e p s e Y e e i e e ",
"h J h J s s e t u r r / v r ;.2.  L.d i d e O O O O O O # O O O O O + O O O O O O O r r r m S.  6.u q e e e i e d M d e e d i d ",
"h.3.p H p w @.h t 0 r t 6.s t I % O 6.M.p u L O @ = Z.G.h.S.M.8.M.h.S.S.c.u + O O p p p >.p X $ y y h p y y e i d e e M u u d #.",
"l.h c.u H t v r t t p t t p s / i   > p y m u @ @ 1 e B.q y p h.p h m r h J O + X p p / t > X p h w p w y D u e #.k.d d D z.D y ",
"u h u p p / p r v p r t / t / [ p 8 . 8 m p p % O >.y d p d >.E p u h.p p p = + 1 p r p 8 X 0 p u w y p q q t e e R q #.d @.u u ",
"3.p p p t t v r t 2.v p t e t t t p 1   0 / P i q #.N.i e i >.P p p m m h p h m p t p 0 . 1 p H y u p y p d y y Y Y e y @.u i u ",
"u @.@.m p ' p r p t r 2.t p p t / M.d 1 X 1 p z.B.k.9.M K.d E u u p m m p p h J 8.p < . 1 t p 3.y y y u d D i e p y y h.m 0.J D ",
"r M.y P 2.v t 5.8.p t t t t v t p r u M 5 . + y u d D d d d i i H u i E 0.J p p t @ . 6 p / t u h J w h i d y d y m m H y y 0.m ",
"M.m [ t / t / / 8.p 8 r v e p / p t L t y d O . - y i d d u d E t E @.d d J J - . @ t r t t u u h w J h e i i y @.y m y y H J p ",
"1.P.2.p p 2.v p p / p L 2.t p p 2.p e r p i m 0     O 5 L q.t P y >.e P 4 X o X 0 2./ p p p 2.L p p D p i p p r i d u p 3.G.H u ",
"i p y d b.r t L t p p y w H v p p t p 3.@.p i d d p * o o     o     . . X * p d p r u u m d d D p p y h e i d y s y d k.y d d D ",
"P M.i E s t p t r r p p w J v p H p p r m 9.@.D E i h.h.L.u 5 < 1 6 u d p p D u p t ' y 6.y y D p h u h d u d d d d k.M 9.u &.u ",
"@.m d y i M e q m p y J w p G G u u y.y p h p p d d p E i M D D J p J h u 0.#.d 6.u u p p y #.e d d z.y k.d i s M Y M d 9.d D D ",
"d d d E d y e e y r y r 0 l l p H p y h r m h m E i t @.M d k.s 0.p y p @.d d y 3.p w p p J y y D i p i d d e Y #.y y M d p d D ",
"p e s i d s i q u w l J u u 8.H.y H 3.p u G.r d L i y s d P.y Y p J p 3.y y p s p r m / u d y s d d i i i s #.p y i d d i i d Y ",
"d i y d M d d q u y.y h H y w H y l.h h m @.p d s Y d d e >.#.k.J y l.u z.z.i y p h h J L.D M e q.E i d B.D M M i d i d i D q.M ",
"i B.M y y d e y w r u w u y w J h h y r q.P u p M #.d D d #.d d y 0.0.h D i E y u u p J i d >.y d k.d d y d y u y d D y i d q.i ",
"p s i y e d D y y w u y w u y w d d p d d m D d #.k.d #.M D y d @.m 0.J M L.#.d d q y y 9.y y q d E u D d d d d M M k.u i #.E i ",
"e i >.y p p d s p H r h J t 3.p u h m M.y p i E s Y >.q.b.i d d >.q.d P d i Q L s d d e >.i N.d s R d Y s i Y Y s d d Y E s >.s ",
"N.M Y y e y q L y c.H w w c.u w y p p p i p d d d #.L.E M i Y s >.i E E L p p e e M s M >.s e d e y s y y Y >.L.Y E Y M i s #.d ",
"M i M e e e E d y p u w u w p r d z.m y E i q.B.d #.d #.i d B.d @.q.B.D i i d d y e i L.k.M M i M L.#.M d d i M #.z.d #.d L.M k.",
"k.e d y e s y e p p h y 0.H w J q.@.d d P d i i E d 9.d k.E E E @.>.D d B.9.M i M k.d e 9.d g g i R M M y d #.M B.#.9.M D L.q.d ",
"y d y i d p y e p H h 0.h y h H p 0.h.d i d y i E y y E B.q.E Y E E E d d #.E P.i q d i L.i s M y N.i d #.y d M >.Y i k.9.q.M Q ",
"i s e i i e p i y y.p u 3.r u H.D y p E i Y i Y i s L.N.N.Z.d p Q p d E d i d B.L.d i e i i i p.p.Q s s L.>.Y s e s y Y N.q.L L ",
"#.M y s d m r y m @.u H H J 0.H u &.#.M s M #.#.k.#.Y B.D u u q.d q.E d q.E d E #.d L.k.>.i y d L.p.R #.y B.M M N.M k.D d M i d ",
"d d k.e u p y y @.y p w H J p u D d M d M d d u M E M d k.q.i d d i i y y p q.9.M #.d D e i Y M M d M d #.#.M M y M #.#.#.u k.d "
};
