/* XPM */
static char *af1f344f9ba04754fdb001ff3da37d2fCHCpJd9MFoFp5Z7E[] = {
/* columns rows colors chars-per-pixel */
"64 64 143 2 ",
"   c #575A5C",
".  c #5B5C5E",
"X  c #5D5E62",
"o  c #605F64",
"O  c #5F6164",
"+  c #636366",
"@  c #65666A",
"#  c #68676C",
"$  c #66696B",
"%  c #6A6B6D",
"&  c #6B6B70",
"*  c #6C6B70",
"=  c #6B6C70",
"-  c #6B6D70",
";  c #6B6E70",
":  c #6B6F70",
">  c #6D6D70",
",  c #6C6C71",
"<  c #6D6C71",
"1  c #6C6D71",
"2  c #6D6D71",
"3  c #6E6D71",
"4  c #6C6E71",
"5  c #6D6E71",
"6  c #6C6F71",
"7  c #6E6E70",
"8  c #6E6E71",
"9  c #6F6F71",
"0  c #6E6D72",
"q  c #6D6E72",
"w  c #6D6F72",
"e  c #6E6E72",
"r  c #6F6E72",
"t  c #6F6F72",
"y  c #6E6E73",
"u  c #6F6E73",
"i  c #6E6F73",
"p  c #6F6F74",
"a  c #6D6D71",
"s  c #706F72",
"d  c #706F73",
"f  c #706F74",
"g  c #706F74",
"h  c #6C7071",
"j  c #6D7072",
"k  c #6D7172",
"l  c #6E7073",
"z  c #6E7173",
"x  c #6E7273",
"c  c #6F7074",
"v  c #6F7174",
"b  c #6F7274",
"n  c #6F7374",
"m  c #6E7173",
"M  c #707071",
"N  c #717071",
"B  c #717171",
"V  c #707072",
"C  c #717173",
"Z  c #727173",
"A  c #707273",
"S  c #727272",
"D  c #727273",
"F  c gray45",
"G  c #707074",
"H  c #717074",
"J  c #717075",
"K  c #707175",
"L  c #727175",
"P  c #707275",
"I  c #707375",
"U  c #727274",
"Y  c #717176",
"T  c #727176",
"R  c #717276",
"E  c #717376",
"W  c #727276",
"Q  c #737276",
"!  c #727277",
"~  c #737277",
"^  c #727377",
"/  c #737377",
"(  c #707475",
")  c #717476",
"_  c #717576",
"`  c #727477",
"'  c #727577",
"]  c #727677",
"[  c #747474",
"{  c #747476",
"}  c #747477",
"|  c #767676",
" . c #777777",
".. c #717275",
"X. c #737378",
"o. c #747378",
"O. c #737478",
"+. c #737578",
"@. c #737678",
"#. c #737778",
"$. c #747478",
"%. c #757478",
"&. c #747479",
"*. c #757479",
"=. c #747579",
"-. c #757579",
";. c #767579",
":. c #747679",
">. c #777679",
",. c #75757A",
"<. c #76757A",
"1. c #75767A",
"2. c #75777A",
"3. c #77767B",
"4. c #76777B",
"5. c #757579",
"6. c #78777B",
"7. c #78777C",
"8. c #747879",
"9. c #75787A",
"0. c #75797A",
"q. c #76787B",
"w. c #76797B",
"e. c #767A7B",
"r. c #77787C",
"t. c #77797C",
"y. c #777A7C",
"u. c #777B7C",
"i. c #76797B",
"p. c #78787A",
"a. c #79797A",
"s. c #79797C",
"d. c #79787D",
"f. c #78797D",
"g. c #787A7D",
"h. c #797A7E",
"j. c #797A7D",
"k. c #7D7E82",
"l. c #7E7F83",
"z. c #7C7E81",
"x. c #7D8082",
"c. c #808185",
"v. c #818186",
/* pixels */
"% v $ $ q.y :.$ $ $ & = & y k n o.h.+ # o.# a.| % # % + l # $ v = :.@ v n v & $ $ & n v & i & q.n & # & k x z.= X.x $ $ O & & O ",
"$ = v # O $ % $ & z.$ $ O q.:.& k.d o.d % s <  .N % N + $ O $ v = $ v = i :.# 2.y k X.= :.:.:.:.$ $ O :.k z.$ X.x p n &.= y &.= ",
"_ O % $ $ % & ` $ x O = O k $ $ 6.d # * % # a.7 % # % B % = % 0 n $ y.#.% % $ $ = v :.y.= v h q.:.$ k & $ $ O 0.z.x & & n x = n ",
"@ & $ = $ X $ @ $ O = = x $ & & f %.[ %.# # % < B % + B ~ % h.% $ i v :.z.# :.n y $ $ n & $ z.O v k & x.O % O $ z.x x p @ p x 0.",
"% $ $ v @ X X y X $ y y x $ & Y | N Q * o 7 B + %  .$ | % % d % $ :.z.x = ` n :.v ` = = v v = $ v $ % = & = &.= $ &.&.&.= = z.& ",
"i = O $ & X $ n $ $ y $ & n # # o N * * + N 7 + % % 7 @ + B d.% :.& k.$ k & k.Y v % = $ & v y.= & # k q.:.$ $ O = &.O $ x z.X.& ",
"@ @ = O O n   n & O $ $ X X # # N # # N + 7 N B + % B @ + # % $ z.y $ & % n y y ` :.$ $ O k $ @ $ $ % q.y ` $ O O = = &.: 0.O &.",
"@ $ $ O $ % % k $ O X X X @ + n # N a.+ N + + N + F $ B % # 7  .$ ` y n k k : % v n h = :.y v = O k O ` O &.$ % x : $ x : : &.n ",
"f s @ < # # # # $ O + # + B + # N [  .% # N + + $ # f d s * f # & n &.$ O z.y y $ & & $ v $ X.@ i v # y.O + + % = z.:.p y X.n X.",
"# f Q * # # | 7 X @ B + @ # @ 7 N + N + [ # N . @ F % >.o f o.# = y & $ & x $ & = $ & O v = :.# :.:.$ = l v $ % O & $ y n & &.# ",
"# # s * N # S # # # + O + # X # N . + + # + N + + # <  .# f # # $ &.n & % % & $ y x n z.= $ 2.i :.:.n :.v 0 l @ O $ &.z.% 2.# Y ",
"< # N [ # o . S $ @ % % + # 7 @ B + % S N + + + [ +  .% f f f # = $ $ $ % ` O @ x : % $ $ = i $ $ @ : $ x % # @ ] $ O O ~ & X.& ",
"s < s % F # + N + + B + . . + + | % + + # # N # [ N # % # ~ # @ x = y & & O # &.& O & # = + # v O = X.$ $ + 7 % = i & 0 # # @ 0 ",
"f o.# # [ + N # % + + B % # S N + + + B + + N + + B N F f @ # s p x n &.& & Y Y O = i &.+ 2.& # # = @ 0 % % # [ % X.X.@ 0 0 0 & ",
"# f s s + # # N + . # | # B # B % + N + + B % < F N 7 # s o.f @ & n & x O &.@ 0 Y y &.i X.o * & 0 $ $ B # B + * # # % % & v $ i ",
"% f d.# B + . N + [ % | B B # B % S + % % N B s # B # + o.+ h.# x O n & & + Y + # & # $ z.i 0 # % % B % # $ + % # 1.= @ % + 2.v ",
"%.# 0 % ~ # # @ y $ + +  .[ % # B % % B # % # + * f 0 @ # + o.o.% = u.& $ & @ & X 0 & i & X.p = B 1.@ @ % F F d % + *   f X h.% ",
"# f % X.f h.# * y y e._ % + % $ % + + B % N + % @ & % @ * % # 0 $ v & & # # $ & @ X @ Y @ y n p % + 7 % + % % % d o.s # * 1.0 X ",
"s ~ 0 ~ i $ f 0 @ = x n #  .% % # # # % # # # N i :.v # f f s f i X.# # & & & $ # + $ y & X & & % + . % @ + 0 @ + o.o.s & @ % * ",
"* d 0 0 v + # 1.= X = = % $ +  .+ @ B 7 # + 7 S i $ = @ # o # o.& i X.& :.@ % y o i :.& & Y $ $ ~ d B @ @ $ $ ~ d f % s * i & % ",
"h = @ $ % h $ $ $ x = O O $ n : @ l d # % N + 7 $ $ O @ 6.% ~ i @ % 0 B & X $ & # O % ` O $ O $ _ % $ $ h h = % o.+ o.~ f f d % ",
"= :.v = = # $ % = & ] z.x $ &.p % + d 6.N % F + @ $ u.:.# X.# Y & # 0 d & # n O & # O O @ @ O x # X i & :.@ # # d # % d.# f % % ",
"$ q.@ O # v = $ = & & O p p X.$ % v # * % % @ % # = # 0 0 X.y $ # 0 1.1.y # n Y O O n O @ & O w # $ e.i = v = i # 0 f o.o %.% # ",
"& = :.& $ :.v v $ & p @ w $ x & $ @ @ o.# $ + 7 = X.:.X.% 2.n k 1.0 + # @ $ @ $ $ O & & $ p @ O % = = % @ $ $ :.$ # * f * o.f * ",
"% #.% k y y % % k k % % X.$ x = $ = @ y.O = $ h v n $ $ v % ` ` @ $ $ O $ = $ h $ O O O O O @ z.$ = v $ % h @ v  .~ @ ~ 0 + B ~ ",
"k v : @ v v ` k ` ` : % $ w $ O = @ % :.:.= h O O = $ v % ` $ :.$ + = O $ h @ k = O % % O O = O $ = $ v $ n % l $ % = @ + + % # ",
"n = y.y Y & y.` y = & $ @ & x z.@ @ v :.X.$ # $ & & $ $ ` y.y = % = $ @ & $ O n = $ % % O x O & n $ v $ $ = % # v @ % X # 0 h._ ",
"& q.q.:.& n n :.& X.$ $ p , z.O v v = = @ :.:.v = v n v = & y.y $ y @ y @ @ O & X O q.: 0.$ x x v $ $ # $ = l @ 0 ~ 0 z.d @ ~ d ",
":.n X.:.n # ` ` = = $ p = $ z.O i i $ x.i $ v 0 & = v :.= y y :.O $ O & @ k $ $ % & y k $ & & $ y $ i i $ = 0 0 o.# * f ~ + 0 1.",
"v $ z.:.k & $ $ x x x z.= x x z.n @ h = = = $ v :.% = $ k h & k z.O @ y O % = = % v O % $ v @ k k $ $ h % @ y.l # * + s # ~  .7 ",
"y $ & n :.` & y y x x @ z.x z.&.$ $ @ :.v 2.i = k = n :.y k n $ & % & & X y :.$ = :.@ & @ v y.:.= = 2.y % & * d.f d f o @ + # 1.",
"& n $ y Y y y $ % $ :.X.@ p @ X.:.i = @ = v 2.v y :.& $ O & & & % k @ $ n n = $ $ % % & $ = y.= = :.$ & % # d.* d @ * @ s @ * d ",
"v e.= _ % 0 * o.% 7 % # + B + + i X.i Y Y p # n &.z.& : :.x & = n y = ` $ & $ y # = @ v X @ :.1.= :.= & $ v k $ O :.y ` $ $ k $ ",
"$ $ v % 0 h.# % d d # 7 % % B | :.@ * # Y # X.= x $ = z.Y k ` @ n = O $ $ y # i h.$ $ $ :.v % :.% % v $ $ $ q.& $ y y O & & y $ ",
"@ + 0 # @ $ @ + % F B B B +  .B $ % Y + + z.n z.$ n z.$ y = x $ x y = % % 0 @ * = ~ $ v $ v h $ $ $ k k $ O % @ k $ % $ $ $ O :.",
"v @ % o.d # @ 0 * # 7 7 7 B B + 0 = 0 # &.@ p $ &.= &.= $ y y @ n & $ y 0 * # X.# $ :.# = v = :.% i & @ $ & @ $ $ $ & $ y & & O ",
"X + i i a.+ @ l %  .o.% B S % + $ $ # & = z.$ & x = $ X.k x :.# i * % 0 v.# 2.X.# + $ % @ @ # [ :.& $ = = v $ X $ % O O & O y & ",
"= i f # % % l % o.% %  .% B B % i # n @ O z.$ z.& $ & n x y Y & f 2.& + + i @ & % % v # # # [ N # & i @ = i @ $ x $ ` = $ $ % $ ",
"$ 0 + % F : $ S # [ + + B B B + k $ v k $ $ : &.x % = : = $ = ` @ # + % O % + @ % % $ % 7 < F N @ $ + X $ $ @ $ = O : O O $ O $ ",
"% f f f 7 % + # # + + F B + S B y $ % & : O O = = O $ = z.$ :.& o.* $ = :.$ v # $ $ + + + < # % i # X O O X @ O y x % $ O $ $ & ",
"6.o.% s # + f % % + + + [ B + B $ @  .1.% $ % % y O $ y % $ = n % f s * % f % * 0 # % % S 7 S N # o 0 # # @ O @ $ $ O & # # & n ",
"d.* a.# s @ N + + + + B + B B B # O $ $ @ 0 # + % % O z.X $ & :.# * f @ % o.s # f % % d # N 7 # # @ # + + v @ O p X.& & Y 2.0 # ",
"# % # % % S 7 + B + + % B N N B % S % + % 0 % @ % ` $ $ = % &.x % # o.% < # o * + # + 7 + # o 7 * + @ % X + # O O n X Y & X.# # ",
"o.% < % # # % + + B N % + . + + @ # + # % B l @ X ` q.$ O $ n x % * * s % % s f # # 7 + # 7 7 N + % % @ % # # @ k k $ O ~ # $ # ",
"# F F % % S % . % + + | + B % + B a.% = % ~ # 2.y.:.:.y k.y i $ # # = 0 % # s f  .% + + + + N S @ @ @ # = 0 $ O % @ @ o.* X.f i ",
"+ a.@ B S N N  .[ % # + + + % % % + $ = f 0 @ @ $ = i & & & # $ d % # v o.X.% % # % % + B S + # * f @ * # % @ = @ 0 0 d # @ o.i ",
" .d [ # % % N B [ N . + N + % B 7 + l # $ = d.~ k $ & = & $ & n + B ~ = & 0 f % B % % + + + + # * + * * @ @ $ + ~ @ 0 # # d f # ",
" .h.| + B S % # % N % N [ + % % F 7 O + $ $ 0 $ O $ $ = k ` $ y @ 1.O l X # $ $ % S N % B N S B % # v # $ : $ $ $ % $ $ ~ h.f # ",
"% % @ % e.+ # 7 @ % # # o 7 N % % # % F B 0 $ = = + :.@ + y.:.n :.~ O % + 0 ~ 0 % + % $ 0 & # Y # & @ 0 O $ $ & % $ = :.$ & & i ",
"l e.$ v $ # # # O + % # @ 7 7 % 7 % % + l ~ ~ i v % :.:.z.v X.& $ & * & % # 0 $ 7 + F # 1.@ $ X.% * # 0 & & & % = % &.y X.# X.# ",
"~ l = @ $ y O X B % + B o % N N % # 6.# % 0 # % = = $ v $ i v v ~ & i 0 # :.v = F # # # % @ x O & & y.@ :.% $ = k k y & :.= i i ",
"= = = v y $ O O @ + @ + . < < % d # + * o 0 0 l v $ $ X.0 = :.= X.# @ & v & v $  .% o # * i & O X.$ $ $ & = + v ` $ $ & & & & i ",
"# O h = = % $ X @ o < Q # # | a.+ d o.% $ h.+ = = $ $ % k x.$ l % ~ % d @ @ % = $ + d d $ & $ % $ h $ $ $ = n % O $ k % $ $ = v ",
"= $ O = k = # X @ >.# * N # @ < @ d.0 * 0 ~ % = = h i $ O :.v 1.~ @ d.% 2.2.% O % d * d z.p x O :.v $ & y.v v i % = $ & $ i :.h ",
"$ u.v @ $ = O $ o @ # o # o . f * i @ + _ d # & v X.& v & v & = @ X.~ % i % ~ @ % @ % f $ & &.O = :.& = @ = $ $ $ % = # $ & X.$ ",
"$ = $ # O $ n $ @ . # # o * # o & * $ 0 = 0 v $ v :.= v y i $ & ~ i X.i i h.i % 0 X @ @ &.& O O = v # v = = $ = k v :.# & v v $ ",
"O $ ` O $ $ h $ % s + * s @ F % # 0 0 e.@ $ $ n y y ` :.:.$ k % _ :.= l = $ n h = = = O &.O z.$ = n $ x = $ x : % k y k x % &.% ",
"q.= v @ O @ O = @ a.d o o 6.# + @ # % % $ % = & y n z.n k $ k & _ $ v v h % $ O O w : x z.: O & O $ = $ O x &.z.y n x y $ & ` k ",
"k $ = $ O O v & # * # o # o # + & d.i @ v $ :.y.% ` % n & & 2.y v :.y.v $ # = = @ O $ z.] x = $ x z.p = = = $ p n :.# n $ z.k :.",
":.O $ @ @ k @ @ # # s @ o.d o f o.v i = v = # $ k = ` & :.y n n ~ ~ = & y.:.i $ x &.& O &.$ w = $ p p x & = X.x z.Y X.y x z.&.= ",
"$ % $ % = = @ O % s # %.s # # d & ,.o.= $ & @ @ n $ $ x y.:.y n :.n v = $ :.v x.% X = $ x.$ & = @ z.$ $ p O = : 0.&.O z.:.&.= x ",
"$ % $ $ $ O $ $ @ >.d % f # % h.v O $ v $ x $ x $ % q.z.#.z.% $ n $ = h = $ = y.z.= $ O $ = O z.&.n : : z.x x = O : O y z.&.: = ",
"` y O % % = + @ * ~ % * d d o.s & Y X.p = n n Y z.n k z.i # # :.= :.v & :.v = v n $ &.z.&.$ $ $ z.&.x X.@ z.x = z.= &.x & x $ = ",
"$ & q.O # % @ @ ~ @ # + d d # # Y & = & y & & @ & x y @ :.n & = $ @ # @ @ % :.~ y X.= x O $ x = w & = & X.X.p x O = X.X.x $ :.= "
};
