/* XPM */
static char *_972c3fed8cd4aaca2b95d4439497e97QZleUqZWxpX4KFwM[] = {
/* columns rows colors chars-per-pixel */
"64 64 196 2 ",
"   c #0C0500",
".  c #100701",
"X  c #150A03",
"o  c #1A0C04",
"O  c #1A0F09",
"+  c #251104",
"@  c #2C1405",
"#  c #23140B",
"$  c #291609",
"%  c #331704",
"&  c #351804",
"*  c #3B1B05",
"=  c #2C231D",
"-  c #2E2722",
";  c #342923",
":  c #3D332C",
">  c #411D04",
",  c #4B2106",
"<  c #48220A",
"1  c #552607",
"2  c #5A2807",
"3  c #4B2C16",
"4  c #57331B",
"5  c #632C08",
"6  c #692F09",
"7  c #74340B",
"8  c #7A360B",
"9  c #7D380C",
"0  c #753F19",
"q  c #422F21",
"w  c #48372C",
"e  c #563B28",
"r  c #7A411A",
"t  c #6F4224",
"y  c #794823",
"u  c #704C33",
"i  c #79553A",
"p  c #4F4843",
"a  c #585858",
"s  c #5B5C5E",
"d  c #6D5746",
"f  c #785C45",
"g  c #625C58",
"h  c #67615D",
"j  c #74675D",
"k  c #5D5E62",
"l  c #605F64",
"z  c #5F6164",
"x  c #636366",
"c  c #6F6965",
"v  c #65666A",
"b  c #68676C",
"n  c #66696B",
"m  c #6A6B6D",
"M  c #726D6A",
"N  c #6C6D71",
"B  c #6D6D71",
"V  c #6D6E72",
"C  c #6E6F73",
"Z  c #706F74",
"A  c #6D7072",
"S  c #6E7173",
"D  c #6F7074",
"F  c #6F7274",
"G  c #717172",
"H  c #707175",
"J  c #717276",
"K  c #727377",
"L  c #717576",
"P  c #757576",
"I  c #7C7875",
"U  c #737478",
"Y  c #737678",
"T  c #747579",
"R  c #757579",
"E  c #75767A",
"W  c #78777C",
"Q  c #75797A",
"!  c #76797B",
"~  c #797A7D",
"^  c #82390D",
"/  c #8B3D0E",
"(  c #923F0F",
")  c #853F12",
"_  c #86471C",
"`  c #9C4612",
"'  c #974817",
"]  c #A6450E",
"[  c #AB460C",
"{  c #B0460C",
"}  c #BC4D0C",
"|  c #A44B14",
" . c #A74C15",
".. c #AD5319",
"X. c #B25116",
"o. c #B4561A",
"O. c #BC5C1B",
"+. c #884B23",
"@. c #8A542A",
"#. c #975523",
"$. c #885936",
"%. c #A75E32",
"&. c #BA6822",
"*. c #A86733",
"=. c #C8560D",
"-. c #D15C0E",
";. c #C95912",
":. c #CB651C",
">. c #CB661C",
",. c #D86812",
"<. c #D36C1C",
"1. c #D7731E",
"2. c #DD7618",
"3. c #D9761E",
"4. c #E07D1D",
"5. c #C36A24",
"6. c #D67B27",
"7. c #876348",
"8. c #9D6E47",
"9. c #917053",
"0. c #98775B",
"q. c #AB7554",
"w. c #877E77",
"e. c #947F70",
"r. c #E4831D",
"t. c #E88C1D",
"y. c #E7971A",
"u. c #EA921D",
"i. c #EE9A1E",
"p. c #EFA61D",
"a. c #F1A31C",
"s. c #F4AD1C",
"d. c #F6B21D",
"f. c #F8BD1B",
"g. c #DC9230",
"h. c #E38927",
"j. c #E79626",
"k. c #ED962B",
"l. c #EEA225",
"z. c #F8B623",
"x. c #F0AD32",
"c. c #F6BA35",
"v. c #FBC61B",
"b. c #FCCC1A",
"n. c #FAD317",
"m. c #FEDC17",
"M. c #FDD31B",
"N. c #FEDC19",
"B. c #FFE416",
"V. c #FFED14",
"C. c #FFE31C",
"Z. c #FFEA1A",
"A. c #FAC32A",
"S. c #FDD729",
"D. c #FCD336",
"F. c #FFE324",
"G. c #FDE034",
"H. c #8E827A",
"J. c #AD8A69",
"K. c #B4936D",
"L. c #AF8C73",
"P. c #B3937A",
"I. c #DA9A48",
"U. c #CC8F50",
"Y. c #E9A646",
"T. c #C69870",
"R. c #D7A66F",
"E. c #DBAC78",
"W. c #FBE462",
"Q. c #7D7E82",
"!. c #7D8082",
"~. c #868586",
"^. c #9C948F",
"/. c #A18F82",
"(. c #A39489",
"). c #A09C99",
"_. c #B09F92",
"`. c #ACA49F",
"'. c #BCA99C",
"]. c #ABA7A5",
"[. c #D3AF86",
"{. c #C3B9B1",
"}. c #E4CD9F",
"|. c #F9E895",
" X c #D4CCC6",
".X c #D7D1CC",
"XX c #E1D5C8",
"oX c #E5DED7",
"OX c #F3E7CA",
"+X c #EAE3DC",
"@X c #FBF1D1",
"#X c #EDE9E5",
"$X c #F0EBE4",
"%X c #F7F3EA",
"&X c #F8F5F1",
"*X c #FBF9F6",
/* pixels */
"m D n n Q N Y v n n B B n B F D T Q.l b T x W I m c b x C n n D N Y v D J D N v n n D N n D m Q.D B n n B A Q.n A B v v v n B v ",
"n N N n z n B n n Q.n k n Y K B Q.Z T Z N Z m P G m m x x x n D N n D m F L m T B F Q.n D !.Y D v v k Q.B Q.n Q.D B B Q.n A Q.n ",
"D x m n n B m F n F z B z D n n W N x N N x W G c m G G m N N N D m Q Q m N n n N D F Q.N D D Q.Q.n B n n n z Q.!.A n n !.A n A ",
"v N n N n z n v n v B B D n m m Z T K K b b Z m L c b m J m ~ m n F C T !.v L L B n n J n n Q.z B D m !.z n k v Q.A Q.n z B n Q.",
"n B n J v k z B k v D D F v N D J Z J N x N G n n ~ n Q N m Z m z Q.Q.L m Y J T D L N m J D N v F n n B n B !.n v B B Q.n v Q.v ",
"B B z n m z v F n v D n m L n n x N N N l G m x m n N v x N W m Q.B Q.n F m Q.D D N N n b N Q.F n n A D Q.n z v n Q.z v Q.Q.Q.n ",
"v z F z z J s B N z n n k k b n M N m m b m m L x m D x x v m m Y F n n n L N N L Y N z z F n z n v B !.n D n z z n n Q.n Q.z Q.",
"v v n z n m n F n z k k z v k J m Z W x Z b x n x L n D F v N J n D N D D F N N D F F N T N F N z N v D v D n B n !.n A n z Q.n ",
"T N x N x b v m v z x b x G x b m W W m m m n n m b Z Z Z N Z b n D J n z Q.N D m n N n D n J n B D v Q z z z n n Q.Q.n B B Q.V ",
"b Z T Z N m T N k v G l v b b m G b m b G m n s b Z m T l Z K b F F N n m N n m N n N k D n Q.z Y Y m B C C N N z n n n Q.v Q.z ",
"x b Z m Z b Z v n n x x c b l b b s x x c x m c x v M W b Z v N z Q.D v N m N b F D Y Q.N n Q.N T E D Y J N D v v z Q.Q.v Q.z Q.",
"m m Z T x l k J m v m m l m m x G x b G m b c x J c T b Z Z Z ].N n m n m J z v D N D z v N m b D z m m D B v x Q.z z z C n C v ",
"Z N Z N Z b l N x n m c a s x v P m x c c b m c G m c m N Z b j N m N m N z n K m z v b N z b J z B D B v l N N b C v C v v m N ",
"J K b v T x Z N n x n m m c P m n z n n x x G v x G Z J Z b b ; - L J L m m J J k B J T k Q.N v v B z B N N n T b C Q.m C N N N ",
"b Z Z N x b m G x a c Q n G b G c x G n v G m m J Z N b Z K K #   J N J z K b N D N Q.N K k N N B v B D b C v b n b v n C C b C ",
"m Z W m G x k n x I n I G M b G n M n c m M G G b G b x K x w.O   ~ F m B x D v n N v v Q.J N b B m F m n n v b b Q.C v v k Q.C ",
"T b Z b T v b v D n z z Y Y m m J c b m m m b b N C C x m x e X   = Q.N b N v N k N N J N T N N B Y v v m G G m m b m a Z k W N ",
"b Z m K Z Q.b N B A Q.D m x m v m x c G m M h b x N N x N ].e .     ].b b m v N v k v J v N D F m x M m x N m Z Z Z Z m C T N k ",
"N K Z Z Z b Z N n B B A v E B N b n x m v v n D C Y D n Z f ; .     p v N m m n b v k C v z B B m v s m v z N x x J T Z m v m N ",
"N Z Z N Z x b T n k B v N v x D n n G m n v N L C n C v b i o X   O X N T v N N k N Q.N N J n z J N G v v m n T Z Z m Z C C m m ",
"N N v n N N v n n Q.v s z n A A v N Z b m G x m v v v x d d X .   O w p b k n n v z N J z n z v L N m v F F N m Z x T Z Z Z Z b ",
"N T J N m n n N B n Q.Q.F z Q.B N x Z T Z m J v v v Q Y $.3 + .   O c O N b J z N v z k z n n F n k D N Q k v n Z b N W b Z m N ",
"n T v k v J N n Q.z n v A B B v m D b N b N b m v N v u 0.@ @ o . o H.: : N T D z v J z B B k F v n Y N N F B N b Z Z K l T N b ",
"m N T N n T N J n n A v D v Q.n n n x T n m x N N Y (.$.f * % o o o j w.# ).z v n k N b z D n v N N N n v n m Y b b N Z N Z Z N ",
"m L m F N N N n F D n N Q.v B n n N v Q z N n F D D t J.3 1 & @ + o w  Xq = N N n z z z z z v Y n N F m m N v D T J x T N b Z Z ",
"F J n n D N L N Y L N n n D v z N x m Y J B N z z ^.y K.1 5 > & % + $  Xe.$ ~.N m z m F z z B z z m n F m D N Z m N N x x x m b ",
"Y m Q.m F N Q.F D N n n v v F Q.v v J L T m n n m y 8.8.7 6 > > * & % /..X4 = J m m m m z N z m Q n J v v F N n N n N k b Z ~ K ",
"n T Q.L N D N Q.m L m m B B Q.z J J m N z N Q.F `.r [.+.( 8 2 1 > > & d #XH.% ).k z Q N Q n F D F m n n n v Z x N Z N Q.Z b Z Z ",
"Q.N L Q.N z J J N m n B B n Q.z N F n !.F v F N @.$.}.' | 9 6 5 1 1 > q +X X4 : v n D D z N D k N n F F n N N Z U b N Z Z x Z W ",
"L z Q Q.Y n n n F F A Q.B D n Q.T z N m n N v D #.K.[... .` ^ 7 6 2 1 < {.&X7.+ N J z N n Q z F N n n N N x W N b N x N b K T m ",
"F n N J K J N D B D D v Q.F Q.Q.m m z Q.J Q.N P._ }.R.&.O.' ' _ 8 6 2 < /.*X'.< m T n m n Y Y Y N N T N m N Z W Z N Z v x x m W ",
"N F z J J F N n m m Q.A v B v F J D D z N F L *.#.OXI.g.5.o.| ` / 8 5 1 9.*XoX4 - N m m n N !.N N T n m b b W N Z v Z x Z x N Z ",
"J Q N J N m N Z N N m m v G z v Z Z Z K Z C B 5.*.%XY.h.6.:.O...` / 8 5 u &X&Xi + N v D k x L T N T N m z L J n z Q.N !.v n D n ",
"n n C N N Q.b N Z Z m N m v F Q T b b b Z N J 6.g.%Xx.l.t.6.5.;...` ^ 6 t &X*X9.& ].v m Q D m Q m m F m n n Q.n n m D z v n D n ",
"v x N v x b v x m Z J Z N v Q m m N K l x Q.[.h.U.%Xc.z.j.t.3.<.O. .( 8 0 #X*XL.> ~.b U n F N n m n N F n z N n N m m n n n k Q.",
"C v m T Z b v N m b N N N N F v N N Z b T v [.h.Y.@XA.A.d.a.t.3.:.o.` 9 0 +X*XP.< c G v N F N L m F m v m N z n z m n m D n n z ",
"k v C N Q v v J m W G m M L m m n v b N n Y E.k.c.@XS.M.v.d.i.r.6.;.| / 0 oX*XP., g v m x b b U L m v N N J m k n n z v n v N n ",
"N C C b m m N m J m m I n F F n N b T x v ~ E.x.A.OXF.m.n.f.a.t.6.;. .( _ +X*XJ., a G b b m Z Z n N F v N N z m !.n D n N v N n ",
"m N x m L m n L n G x v M F F n N n C J m n E.c.b.|.F.B.m.b.d.i.3.>.X.` +.$X&X8.< b m N m m U G v b z k z n z N v k N z z n z n ",
"N Z N J G m x b n x h G F z B B N n N n m z v D.b.W.C.B.m.n.f.a.r.<.X.] _ XX$X@.* H.x x x Z m m N b z z z z n z N N N n k N n n ",
"T K N N b x J m n z x x Q m n F n v J T N m m D.b.D.Z.Z.B.n.v.s.t.1.O.] / U.{.) % ].b b G b U Z b k Z b v v k n n v v n n k v D ",
"W Z W b Z b G x x c n c c M F M n z m m v N m x.M.B.B.B.N.M.v.d.u.6.O.` ] { %.9 O N m Z b G n m b v b l v K b z n !.n N Q.Q.N v ",
"b Z b b m G m x c n x c m n M D m J c x N N m I.S.B.B.m.m.n.b.d.t.1.O.} } ] ( 5 = b x m x b l N N l v m k k v k v !.s D b Q.n m ",
"Z m M b b b m h n P m c n z n c m v x n m F N [.S.C.B.B.m.n.v.s.u.1.:.;.=.[ ( & I b m b m G m G l m N v N m n v n N z z N v n n ",
"m J D N m I n z m n x G n G c n G T N N n J m T g.C.Z.C.N.N.b.d.j.r.<.;.} { ^ X I n x c x x m L b b v b N N b k N v k Q.N Q.b N ",
"x Q v D G M n I I m v m x x m c m x v B N N n x T.c.B.Z.F.N.n.z.l.2.-.=.=.[ & h b m n x M G v b N Z v m v N v C v N N J b v Q.C ",
"T N L v m c G G G m s z G s c G m c B v n N Q.N F &.i.B.V.C.n.s.4.,.,.,.=.7 # N G m c c n b b b J l N N z n b z Z v Z v v N b v ",
"T !.L v F P m c G m m G P x m m L v v x n n N m v m &.p.Z.V.N.f.s.a.i.r.=.* b N m G G n n n L M m b D b n N N v v N b b J Q.Z b ",
"n N n m T x n m v m b b l N Z m m b m Z Z N n N N x T &.y.n.B.V.B.v.t.;.5 ).D N b x b n D B z v v m v N v v n n N n n Q.k n n Q.",
"N Q n J m n m n h x m b x Z M m m N m x N T T C C n T D %.;.,.2.,.-.} +.C b N n N v T v Q.z v Q.N N b N m n n N N N Q.F Q.z Q.k ",
"J F N v n N z k D m v J x m Z G b N W v b N b m N N m C n D q.%.*.q.'.N b T J N T b v m v v Q.s b N Q.k !.n n N N N n N Q.N n N ",
"N m m D N n z z v x v x s N N m Z b x N l Z Z C N m v J B B Y B T v b m D N C n T N z n n A n z J v N b m N z N Q.z v N b N n N ",
"n z F B m B v k b x m Z v m P ~ l C K m m Q.z C N n n m B Q.z F n J m C z v m N n k J Z z n n v N N m n n m J m v v F n v n N D ",
"B n z F B B B z v T b b N b b m v Q.C N N J N N m D B n z Y A Q.J v W m T Q.m z v J C N Q.Q.Q.k Y D v v !.D D D n N n B v C Q.D ",
"n Q.m z z B z n l v b v b v s Z N N b k J C n v D L N D B D B m v T T m C b J v b n N C z n Q.z N J B F k m n n v n n v n z B v ",
"m B v v z B F z v k b v l b v x N N b N N N D n F T N Y B D n B J C T Z N Q.C N C k v x Q.z z z N D n D N N m N n Q.Q.n n Q.D n ",
"z n Y z n N N m m Z x Z Z v Z M v N N Q.x N n D n F J L Q.n D n Z T N D N m F D z V n z V z Q.n z Q.z Q.V z V V n N N D Q.n Q.n ",
"!.N D n z z k N b T Z l s W b x v k N b n v N n A J Q.J n n F m Y n D D N m n z k Q.V Q.Q.V z V z z V z n n Q.Q.n Q.N N z n Q.N ",
"N z N z z z J m b N b l b l b x m Q.D v D n J Q.B D m J m n Q.n D T E C n n m m z z n Q.V V V z Q.Q.A V n V z V Q.Q.k N z Q.n Q.",
"Q.z N n z D v v b b N v J Z x Z Q.D N v D N n n F N J n Q.J D J J Y N N T F F m V Q.n z Q.z V V n n n Q.n n Q.V Q.v Q.v N Q.Q.z ",
"z n n n m N x k b Z N T N v N N n Q.D F n N n n D m n D Y Y N L J D F B m L D !.n z V n !.n n n z Q.z V A z n B Q.Q.v Q.!.Q.v C ",
"n F n n m k N v x I m m Z b m W N k v D n N v F n n Q.!.Q.Q.n n L m n F F n m Q.Q.z n z n n n Q.Q.V n V Q.B Q.z k n z n Q.n F n ",
"L D z N m N l b Z J b N Z N T N n Q.!.N N F D D Q.D n Q.N z n Y N J J N J J m F Q.z V Q.Q.z n n Q.Q.Q.V z Q.Q.B Q.z A B n B n B ",
"m z Q.z b m b b T x b x Z Z b N D n n N N N m n m F N n Q.J n N m v n v v m Y D v Q.n Q.z n V V n n V n Q.B v A v n Q.B Q.v Q.n "
};
