/* XPM */
static char *_81e26d556d943f6985162523a43347euQWKfdEr13mai0nx[] = {
/* columns rows colors chars-per-pixel */
"64 64 174 2 ",
"   c #525046",
".  c #555249",
"X  c #5A574E",
"o  c #5B584F",
"O  c #5A5750",
"+  c #5E5B53",
"@  c #5E5E58",
"#  c #615E55",
"$  c #625F58",
"%  c #636057",
"&  c #65635B",
"*  c #69665D",
"=  c #6B685F",
"-  c #676761",
";  c #6A6760",
":  c #6C6B63",
">  c #6F6F69",
",  c #716E65",
"<  c #726E69",
"1  c #737167",
"2  c #74736B",
"3  c #7A756E",
"4  c #7B796E",
"5  c #776F70",
"6  c #7B6D72",
"7  c #767671",
"8  c #7A7672",
"9  c #777872",
"0  c #7C7A74",
"q  c #7E7779",
"w  c #7E7E79",
"e  c #80756E",
"r  c #817773",
"t  c #827D75",
"y  c #8A7F77",
"u  c #82767B",
"i  c #827D7A",
"p  c #887D7A",
"a  c #7F807B",
"s  c #838177",
"d  c #84827C",
"f  c #8A857E",
"g  c #8A897E",
"h  c #867A80",
"j  c #8A7E84",
"k  c #868581",
"l  c #8A8582",
"z  c #878984",
"x  c #8B8A84",
"c  c #8C8589",
"v  c #8E8E89",
"b  c #908782",
"n  c #928D85",
"m  c #988E87",
"M  c #91858B",
"N  c #928D8B",
"B  c #9A8F8D",
"V  c #8F908C",
"C  c #929186",
"Z  c #989187",
"A  c #91908B",
"S  c #909089",
"D  c #94938A",
"F  c #91928C",
"G  c #93938D",
"H  c #91918E",
"J  c #93938F",
"K  c #93948F",
"L  c #97958D",
"P  c #95958F",
"I  c #96968F",
"U  c #93928C",
"Y  c #9A948C",
"T  c #96988F",
"R  c #9B998E",
"E  c #948C91",
"W  c #998D93",
"Q  c #8F9291",
"!  c #929091",
"~  c #949190",
"^  c #939490",
"/  c #929492",
"(  c #949590",
")  c #969590",
"_  c #969691",
"`  c #959692",
"'  c #979792",
"]  c #959591",
"[  c #9A9592",
"{  c #969893",
"}  c #969894",
"|  c #999993",
" . c #999994",
".. c #9B9B95",
"X. c #9B9897",
"o. c #999A96",
"O. c #9A9A96",
"+. c #9B9C95",
"@. c #9B9C96",
"#. c #9D9C95",
"$. c #9D9C96",
"%. c #9C9C97",
"&. c #9F9E97",
"*. c #9B9B94",
"=. c #999698",
"-. c #979A98",
";. c #9B9898",
":. c #9A9B98",
">. c #9F9E98",
",. c #9E9C9B",
"<. c #9C9D99",
"1. c #A19794",
"2. c #A29B95",
"3. c #A89E96",
"4. c #A29D9A",
"5. c #A99F99",
"6. c #9EA095",
"7. c #9FA09C",
"8. c #A2A196",
"9. c #A0A09B",
"0. c #A3A39E",
"q. c #A4A49C",
"w. c #A6A49D",
"e. c #A5A59F",
"r. c #A6A49F",
"t. c #A3A39C",
"y. c #AAA49D",
"u. c #A9A99F",
"i. c #A29EA1",
"p. c #9FA2A0",
"a. c #A4A5A1",
"s. c #A3A6A4",
"d. c #A6A7A4",
"f. c #A5A5A2",
"g. c #A9A7A0",
"h. c #AAA6A2",
"j. c #A7A9A5",
"k. c #A7A8A4",
"l. c #A8A8A2",
"z. c #AAA9A4",
"x. c #AAAAA4",
"c. c #ABABA6",
"v. c #ABABA7",
"b. c #ADADA7",
"n. c #ABAAA4",
"m. c #A7AAA8",
"M. c #ABADA8",
"N. c #ABADAA",
"B. c #AEAEA8",
"V. c #AFAFAA",
"C. c #ADADAB",
"Z. c #B2ACA7",
"A. c #B2AEA9",
"S. c #AEB0A5",
"D. c #AFB0AA",
"F. c #AFB0AB",
"G. c #B1B0A9",
"H. c #B0B0AB",
"J. c #B2B2AB",
"K. c #B3B2AB",
"L. c #B2B2AC",
"P. c #B2B2AD",
"I. c #B2B3AE",
"U. c #B2B1AC",
"Y. c #B8B2AE",
"T. c #B7B8AD",
"R. c #B2B3B0",
"E. c #B3B5B2",
"W. c #B5B7B3",
"Q. c #B4B4B1",
"!. c #BAB5B2",
"~. c #B7B8B3",
"^. c #BABAB5",
"/. c #BEBEBB",
/* pixels */
", 3 x 0 2 2 9 w * , 8 w 8 9 d d = 4 0 0 1 2 1 , : , 0 a t 9 8 0 2 9 i 0 0 i i , = 2 g k d a 2 2 ; 0 T +.%.| x x ; 9 9 0 7 7 7 9 ",
"; L B.M.q.M.M.k.: 2 9 9 , 3 x <.: x x x o.` K / : 0 d s 9 d d A * 2 N X.X.N l ~ 1 s { ..l z A x , d D %.l.G.G.D.- x 9 7 9 9 8 v ",
"= s l g w t a d = 1 2 > 2 1 t d : d K l a g K K - 0 d a d d d x = i 8 < 3 i l z : 0 v V T _ _ v ; g +.%.l.G.b.l.% 9 k v k z v z ",
"* x 6.K { *.f./ , w z a d 2 > 2 : g | A o.V d x * z V z x x x K : d ;.z i l p l * 2 d l w 4 d z ; C w.q.q.I.~.f.* 9 d z v v x v ",
"- %.~.I.I.M.I.s., 9 v z z z w > * K q.9.+.+.-.z * S V V V A +.{ ; i ,.E u z N i 1 9 2 1 2 2 > 2 ; x l.I.K.K.D.M.% 0 d k k z N _ ",
"> x 9.l.P.9.8.7.: 0 k V J V v w * f { *.V z x v % K <.<.<.q.%.m.; 2 ~ [ =.N l l ; , 7 w v v a 0 : x T.G.I.b.b.D.* k z k w 8 9 d ",
"* 4 D n L l t g : , v d J J z z : 1 g d d <.>.,.% { +.V v { A x > 2 ) ) N N N i 1 1 9 l v d x V > s n.8.Z.w.T L & w v 9 w 8 0 1 ",
"1 & # # % # % & 2 , # & # @ % & 1 = + + % 2 1 & % * > % * O % # , = # $ * < : & 2 1 , : ; & % * : & % % o + o % - $ # % # % % & ",
"x d d 2 1 t s 0 0 4 : 1 1 , < 2 2 0 x d : 9 d k K V z 9 2 2 0 d a 4 4 2 , w 3 d d d w 1 , 4 z x x z k 9 ; k k d d d i 2 , w d x ",
">.%.%.d 4 8.1.8.G.n.W.4 * C x l %.l.+.x & D q.D.k.f.j.7.; x x v A V { w : J v 2 d w z d = w 2 g A V k 7 > >.~ l 9 8 0 w : l v x ",
"x | *.3 = Z.y.3.y.2.u.i = 3 d S D A L w & x Z l.M.q.q.0.: J J _ ..J ..9 , f P _ k J z d = k d a 3 d z d = x l v k 8 n i ; k 2 t ",
"x A x 3 % 8.y.Z.8.R 3.d 1 0 S { 4.L w > * Z T D | | x S : J J | { V S 7 , 0 < 8 k d v d 2 x a d d 9 k d ; #.z d 0 N i 9 1 v J v ",
"f x U d & Y y.u.n.l.2.d = { x x A x | w 1 | f g x f L z : ..v N L <.-.a : d d d V ~ k 7 ; 2 z x d d 9 2 - h.N v v v k > : <.v z ",
"< 3 l 0 = Z 8.y.8.A.R s % S.a.9.A k S 9 1 A | A | t.M.{ % J P x x _ 6.l * 9 d [ ..0.>.v 2 d 0 9 k k z w : t l v ~ =.k > * a.;.9 ",
"f x 0.d = Z Y R y.Z.G.d & +.E.F.k.0.>.2 , l.k.l.| x A k.# P _ L x 9 8 > = , 1 t P [ P k 2 V S d a x d 7 ; l 9 d [ ;.a.7 < V :.k ",
"$ @ * - = + .   . # % & , & 2 2 a 2 * = : * 2 1 : & % * : ; : ; * % + & , * & % * X + = 7 l 0 : % * * - : # 1 & # $ + * > % & - ",
", ; 2 w w d d a : & i f 8 8 e 1 & : 2 2 a 0 9 2 < : P %.n f n L 0 > x d d d d a 2 , 7 0 a d x z 7 > 9 i q < : 2 : & t t s i 3 3 ",
"2 * 2.%.P.I.f.0.[ : n m 1.1.b Y : 1 w z d d k z i ; m 1.w.Y 2.y.l x +.l V 4 d a 7 1 2 2 s d l x k 2 N 8 l N M x i ; 1.B f m f b ",
"> - B.z.l.P.l.D.l , Y y f f m 3.2 & =.z v x a a d - y.1.3.3.4.y.9.4 g x d d 0 d , : 9 k x x 2 2 9 & p j 8 b l l 2 * 3 p m y e y ",
": < ^.P.q.q.0.q.n = B 3.Y B y.5.i & l =.x z V d 0 # Z y.z.y.h.[ 9.2 d V z d l z 0 2 d d g a z K v $ l k j i b M : : m r 1 e y e ",
"= 0 2.b.f.A x %.J * m B 1.2.2.2.z ; N z x v v z 2 % h.n Y 2.Y L Y : 9 d V z d x 2 2 o.V V 0 a x 9 < [ =.M ) c l : , y p f p e r ",
": , q.L .._ L 8.n & m Z 5.5.3.Z.0 % V d a 9 w d 2 , Y ) m Y n Z d , z 2 d z x { z @ 7.7.:.o.x z 7 : ;.E 1.4.X.E : * r e y y e r ",
"- ; G.u.T q.k.9.U * B 3.3.y.3.4.< * w v v z z V < , 1.n n n s s < * [ 6.D { V / z & 6.j.a.7.o.V < * N [ W 4.i.[ ; : e y e , e y ",
"; * 2 > > , % # # = % # X # o # * - # X @ & + % = = o # $ $ = % @ * % ; & @ : , - ; * - 7 , ; % - 2 ; < ; * * $ 5 5 $ # # o # o ",
"w 2 & > z d z v V v * 9 x z z k k 2 & & 2 > 9 d z i & d T S g x K x * 2 x v v k f w , f K { z l v 9 1 , w 9 : > t 3 > > w d w d ",
"~ J - v N 0.7.-...>.: / q.q.0.>./ -.- z _ x 0 9 0 A * g T D C s 6.6.& S 0.6.0.a.9.;.* %.9.n.0.%.c.{ , 0 0 s ..u.4.~ , d L ;.v k ",
"z k & a.,._ V a.a.<.- K *.T %.%.v d - z -.{ z 0 9 1 & x C R T D T 9.: *.f.0...L L #.= T L 9.f.| [ z = a d 2 s | 9.-.& t v P =.~ ",
"E a % >.6.k.>...7.v ; 4 l T A %.v <.: t x V / 0 7 2 & 6.T g C C C u.> l >.0.4.#.*.*.= T q.L 0.+.C ..* V K f f x L z * d P n J v ",
": 9 * #.P 4.k.6.v z * q.V A A +.-.v - 0 z x V d a x > D u.*.x g C Y 2 n #.v x *.%.+.* 2.M.q.+.0.0.v ; v V d s d x d * i l i 0 8 ",
"q w & *.| n A >.-.V = z x x +.n / <.% f D A x / d 0 - u.g D 6.n.l.u., *.[ K f t x x : +.9.f.%.6.z 9 * d k v z f n z % 3 i d d 8 ",
"d 7 ; f.l.q.%.%.K z * g g T L %._ v * d d d d z / d @ g l.u.6.D C +.* C 2.f.J x f g * G.k.9.q.{ V 0 - V | L A f d 4 : 8 d z q i ",
"- : $ 3 1 1 0 1 2 = 1 : , ; > 2 4 > * @ o % + = 2 : - % = + @ = = + & = 1 : 2 , 3 , & : 3 1 = : : & ; = & O o # # @ : $ + & + % ",
": , z d x f 0 2 , t l i q 6 6 6 1 2 l z v a a 0 - 2 z x d w l k = s [ W c k Q h & 2 l [ P =.v w ; 9 d 9 2 7 w 9 1 ; 7 2 9 d T v ",
"7 A s C *.%.D %.: i u j u 6 h h 2 s x x v +.<.6.> n | | ..<...{ = | A.) =.c k E : t d i L [ 4.;.: N V =.x d v z 2 d m.>.l d K p.",
"* d 4 l V g L l < W 4.M j j h u > 0 d 2 w d l d # z [ _ | q.~ z = n f.f.c z c h & d l n Y [ N i * V x d k z V v 1 4 ..6.6.K l S.",
"& a a 0 D *.J >.* Y l u 6 6 h u : t t v >.k.v.B.* N A L N v v a * n 4.E Q c h q - l u i l z 8 0 @ > > : : 2 d v * 2 3 0 x S x x ",
", z V g f x | +., u r j M M j h , i 8 w x *.9.t.: v z i x g x k : 9 E E c c W E & E N k l q i k % d d z / z > 2 % K a.K V d d L ",
": g z z J d f C , M M W j j h 6 < v V f g x D %.: 9 0 x x V x x - v N.i.Q E E E $ ~ =.] N k 7 q & J <.D -.<.v a @ K <.J J 6.l t ",
"= z l x x N U n ; m W W W j h u < x J x Z [ *.q.> d i g 0 f g 0 , < ,.M j c E c - N s.4.E v N N - d -.l g J v z & x q.j.{ A ..{ ",
"> % 1 1 = = ; & ; * , , ; ; < : : ; 2 d 0 , 8 : $ * & - = % & o < ; O @ > > - @ ; - < * - # $ - , * > % + + % @ ; @ + % ; : = ; ",
"w 2 = = = 0 w 9 u i 0 3 3 | L K K J 0 * 0 T L L <./ 9 = 2 d a a t g a & , l ) W l u 2 ; , 0 8 9 0 w 2 ; 4 z d a a a w * 2 2 4 0 ",
"C x a @ x y.4.X.h.C.=.% U l.u.G.M.7.s.- +.I.l.q...6.-.+ 8.+.6.C n Z V & l M p j l i c : 3 i v l 8 1 7 % i d x V D V V * a a d g ",
"x x g & N 1.h.2.N ) i.% x A n n d +.j.% R t.W.f.q.q.7.& C 6.6.C R T d * b M j p i u q > * 5 i l k l w - x 7._ _ +.{ K ; g V T g ",
"g f a & p 4.2.W ;.2.4.& w.P.q.9.z.>./ % Y *.q.G.s.a.` % C T R q.S.u.z * M M p j u M < * , ; ; 5 t k z - x _ 7.+.K <.V * g d S z ",
"d D 9 ; [ B 5.i.3.i.;., c.q.P._ 6.<.z % n Z 8.M.E.b.f.* g R R 8.6.u.V * l J W j M j i - 8 8 < , u d d & A ..+.+.6.o.{ * a D D T ",
"6.7.2 & B f.M b 4.4.=.: ~.v.B.F.a.q.j.% T n Z l.S.q.k.& 6.6.6.u.S.T.S.% 8 f j M W M h , 9 8 3 8 8 d k $ L +.A A z T a : s T q.7.",
"F.s.w * f 4.!.h.l y t + t.9.q.>...#.q.2 L h.q.l.u.S.D & u.u.n.G.u.D D * j W W W W M q : u z i i i l i $ C V +.T ` D g , C T R F.",
"* 2 2 < % O O ; 8 $ + * % 3 2 7 2 3 1 = : 1 * * * % * = * % + % : 4 1 1 : & : ; , * & : = * ; $ % % * 2 + O o % @ @ = : # + + + ",
"7 0 : 2 0 0 > & d l %.x d K a : w w i z i w 2 1 1 d d t t x w , e g g g g D s 1 a g z g d 0 2 1 d z a 9 w d 9 > , 9 9 9 w t 3 > ",
"C { p.} 7 a 9 * *.*.D x x x *.: d k d N v J v * y.A.z.Z.Z.Z.[ * R g g R C R u.= g D D R C A x : a.j.k.z.| P.<.- w 0 9 2 0 0 3 * ",
"S x <.V a V V @ C { C U C A A & v q i P x x l , Z.y.2.Y m 2.N * g 8.R g 2.8.8.* 1 4 g g a 4 1 1 u.k.l.k.6.6.:.* w V -.V z d 9 = ",
"*.o.:.7.V x 7.& x g v { >.f.6.% l x x l z N w = m 4.B f b s l * R 8.R g R 8.C = C s a g g g a = A.l.l.9.+.q.m.- s x J V J x z = ",
"g { C A -.l 9 & L [ %.%.J L +.; i f d x A A D = 5.1.Y 1.b n B % g g R y.g u.u.% R C g C D T +.= f.M.k.0.B.q.<.* v / z >.+.+./ * ",
"s 0 w l { o.d * L D D *.>.>.-.* 8 8 8 0 f U T 1 Z.y.B N 1.[ m & R R R 3.8.R u.& C D S C Y R Y , T D.z.u.l.G.L % L >...d K ..z * ",
"3 9 l L l x x * %.9.*.9.| *.d : 3 , < 3 3 1 4 : h.3.4.1.4.W t = s R 8.u.S.u.S.& s 1 1 a s R c.; n.^.B.f.Z.l.d , A x K { K +.z ; ",
"& % % * * * * : & * % 1 , % & , * ; , = & * * : % % # # # # = , * 1 = 1 a s 4 = % , : = * = ; * 1 s 2 % o % = : & + o + & : & : ",
"k d 2 1 : i i m x k < , t A { d w 4 1 2 2 d l d a g w > 2 d a d s 4 = , 0 w 9 w w z l : x ~ ) [ N f t - 0 9 7 d d d 2 > = 4 l { ",
"^.C.z.; t N m 1.X.N t , 9.n n %.| { v = f D A { K A V 2 w d 4 d 4 s 4 : q.z.v A >.4.f.* !.!.Z.z.f.4.M * x P >...+.K -.; %./.Z.~.",
"0.0.>.& e y m B [ [ l = 8.+.U t.T S V = d x g d V _ -.; ; z D K g T a * l N x Y 4.;.;.$ !.!.A.i.4.[ 4.- x *.J J %.0.z.@ R A.y.2.",
"N d N : r f y r y [ l $ B.M.+.x l D z * g T / { a.6...* 9 g l k s g z * 3 k i t N P N : Y.A.Y.5.W =.X.; g n _ 6.q.D.F.@ g L U g ",
"x x f : , e j f b m P % D.a.a.x i K z : g ..A D J >.f.- +...9 d d 7 3 * t i x n r x X.3 Z.h.A.4.i.[ E $ 3 t s n f *.h.@ Y x n f ",
"y d w * < e 6 e l m N : l.M.M./ v C { = 0 >.T 9.0.B.M.: f v x 7 9 f w : ) X.P =.;.4.y.2 i.Z.h.;.f 1.4.: 1 d g f 0 1 d + Y L Y #.",
"P P 8 > < b y r e f f = q.F.6.:.{ A s 1 3 L | A %.q.z.; w x v v 0 9 : , [ R.C.C.A.v.h.; h.Z.5.[ [ B =., 1 1 0 s L d x # h.2.w.N ",
"# # * , , # $ ; * # * : & * ; % + % * 1 & + # % = 4 : 2 : @ % * * ; = , & & < i e , & : ; e l r q , $ ; : = & * 1 0 : : 2 3 t : "
};
